<?xml version="1.0" standalone="no"?>
<!DOCTYPE svg PUBLIC "-//W3C//DTD SVG 20010904//EN"
 "http://www.w3.org/TR/2001/REC-SVG-20010904/DTD/svg10.dtd">
<svg version="1.0" xmlns="http://www.w3.org/2000/svg"
 width="1414.000000pt" height="2000.000000pt" viewBox="0 0 1414.000000 2000.000000"
 preserveAspectRatio="xMidYMid meet">

<g transform="translate(0.000000,2000.000000) scale(0.100000,-0.100000)"
fill="#000000" stroke="none">
<path d="M7400 19991 c0 -16 65 -180 92 -233 179 -353 389 -585 683 -750 155
-87 221 -112 415 -155 116 -27 409 -24 515 4 97 25 261 102 294 137 14 15 22
26 20 26 -3 0 -45 -20 -94 -44 -105 -51 -213 -91 -221 -83 -9 9 52 67 69 67
27 0 191 51 250 77 52 24 60 31 88 89 30 61 32 68 26 152 -3 48 -17 130 -30
183 -28 109 -145 370 -182 409 -14 15 -25 33 -25 41 0 8 -11 31 -25 52 -20 29
-32 37 -56 37 l-31 0 30 -38 c36 -46 162 -271 162 -291 0 -7 -14 -40 -32 -73
-28 -53 -34 -58 -43 -43 -5 10 -29 47 -53 82 l-43 64 21 34 c21 33 21 34 1 44
-16 9 -23 6 -39 -15 l-19 -27 -24 34 c-13 19 -24 45 -24 59 0 20 -5 25 -25 26
-44 2 -47 4 -64 28 -14 22 -14 28 -1 52 11 22 12 30 2 36 -21 13 -35 9 -42
-12 -9 -27 -18 -25 -58 10 -27 23 -44 30 -78 30 -39 0 -41 -1 -24 -14 17 -12
17 -16 5 -30 -11 -15 -11 -19 3 -33 15 -15 18 -15 34 6 l19 23 32 -27 c32 -27
32 -28 16 -52 -15 -23 -15 -27 1 -42 14 -14 17 -14 25 -1 29 47 28 47 61 13
26 -26 30 -35 21 -46 -17 -20 11 -45 32 -28 11 9 20 4 45 -28 27 -34 29 -40
15 -51 -13 -12 -13 -15 0 -29 12 -12 19 -13 28 -3 18 18 24 15 49 -25 13 -21
35 -54 51 -73 15 -19 28 -39 28 -44 0 -15 -161 -252 -224 -330 -31 -38 -90
-105 -132 -149 l-75 -79 -97 3 c-66 1 -125 10 -186 27 -124 34 -311 111 -350
143 -6 5 -42 29 -80 54 -64 41 -166 126 -223 185 -29 30 -209 252 -238 293
l-21 30 151 151 150 151 -164 3 -165 3 -53 -53 -53 -52 -22 52 c-18 40 -28 52
-45 52 -23 0 -23 -1 9 -65 25 -50 30 -67 20 -77 -16 -16 -22 -8 -48 70 -14 39
-29 68 -38 70 -9 2 -16 -1 -16 -7z m345 -456 c112 -142 302 -328 397 -388 78
-50 244 -131 318 -155 97 -32 247 -62 314 -62 l60 0 -30 -31 c-29 -31 -30 -31
-104 -25 -111 8 -288 59 -414 118 -176 83 -206 103 -405 277 -74 65 -155 161
-234 281 l-57 85 22 17 c13 10 24 18 25 18 0 0 49 -61 108 -135z m1739 -275
c1 -65 -4 -121 -13 -148 -13 -39 -18 -44 -65 -57 -28 -8 -89 -25 -136 -39 -47
-13 -86 -23 -88 -21 -2 2 21 36 50 77 30 41 76 112 103 156 28 45 53 82 57 82
4 0 9 -10 13 -22 3 -13 10 -32 16 -43 5 -11 15 -47 23 -80 9 -37 15 -49 15
-32 1 15 -11 69 -25 121 l-26 93 23 44 22 44 16 -35 c10 -24 15 -69 15 -140z"/>
<path d="M13800 19993 c-97 -16 -257 -95 -544 -270 -359 -218 -481 -290 -891
-523 -475 -269 -551 -318 -634 -402 -205 -206 -180 -521 52 -670 74 -48 158
-70 272 -72 80 -2 107 -6 135 -22 19 -12 72 -33 118 -48 66 -22 85 -33 97 -55
26 -50 75 -69 167 -62 23 1 76 48 94 82 8 16 15 49 16 72 1 54 -43 143 -77
159 -14 6 -25 14 -25 18 0 3 33 19 73 34 97 38 356 168 612 308 116 63 255
139 310 168 55 30 152 85 215 123 63 38 118 71 122 73 3 2 4 -4 1 -15 -6 -23
23 -45 91 -67 30 -10 65 -32 90 -58 39 -40 40 -40 44 -17 3 16 -5 32 -22 48
-46 43 -47 106 -1 175 14 21 25 45 25 53 0 47 -90 -69 -97 -126 l-5 -37 -47
20 c-77 32 -82 24 82 128 58 36 67 46 67 71 l0 30 -87 -59 c-130 -87 -314
-196 -528 -312 -104 -56 -262 -142 -350 -190 -557 -304 -984 -465 -1180 -444
-113 12 -228 69 -278 137 -50 66 -48 79 5 25 72 -74 140 -108 237 -117 91 -10
141 -4 318 38 181 42 257 73 478 197 105 58 260 142 345 186 85 45 182 96 215
113 33 18 162 84 287 148 221 113 326 173 398 225 109 80 140 106 140 118 0
20 -3 19 -72 -31 -135 -97 -296 -199 -348 -223 -92 -40 -587 -290 -715 -360
-66 -36 -151 -82 -190 -102 -38 -20 -126 -67 -195 -104 -121 -65 -279 -123
-400 -147 -30 -6 -82 -16 -115 -23 -151 -30 -279 16 -379 138 -54 67 -79 129
-80 206 -3 170 134 304 530 520 43 24 135 75 204 115 69 40 170 98 225 129 55
31 141 81 190 110 50 30 119 71 155 92 36 20 111 67 167 104 55 38 134 87 175
111 40 23 117 73 172 110 153 106 319 159 450 143 68 -8 164 -32 198 -50 26
-13 28 -13 28 5 0 46 -219 94 -340 74z m-1242 -1828 c43 -17 79 -60 93 -108 7
-24 4 -41 -12 -75 -58 -118 -202 -105 -216 20 -6 49 32 136 70 163 26 18 19
18 65 0z m-148 -54 c-11 -17 -24 -47 -27 -66 -3 -19 -6 -35 -7 -35 -6 0 -126
49 -140 57 -13 7 7 17 86 44 57 19 105 34 107 33 2 -2 -7 -17 -19 -33z"/>
<path d="M12503 18073 c-18 -7 -16 -59 3 -77 21 -22 47 -20 70 5 17 18 17 23
4 46 -14 25 -49 36 -77 26z m45 -41 c2 -7 -3 -12 -12 -12 -9 0 -16 7 -16 16 0
17 22 14 28 -4z"/>
<path d="M13868 19690 c30 -13 29 -34 -2 -26 -32 8 -45 -13 -21 -31 24 -17 28
-17 55 5 33 27 20 62 -23 61 -29 0 -30 -1 -9 -9z"/>
<path d="M13594 19620 c-27 -10 -34 -29 -23 -57 6 -17 16 -23 39 -23 30 0 36
6 42 44 4 25 -31 46 -58 36z m36 -17 c0 -5 -4 -15 -10 -23 -11 -18 -25 -7 -17
15 6 15 27 21 27 8z"/>
<path d="M14000 19460 c-12 -8 -11 -10 8 -10 15 0 22 -6 22 -20 0 -11 -4 -20
-10 -20 -5 0 -10 5 -10 10 0 6 -7 10 -15 10 -18 0 -20 -31 -3 -48 17 -17 42
-15 61 6 22 24 21 38 -3 62 -23 23 -29 24 -50 10z"/>
<path d="M13765 19290 c-4 -6 5 -10 19 -10 25 0 33 -10 19 -23 -3 -4 -13 -2
-20 5 -11 9 -17 9 -24 -3 -6 -10 -3 -19 12 -32 19 -15 25 -16 43 -4 25 17 32
43 16 62 -14 17 -56 20 -65 5z"/>
<path d="M2525 19196 c-187 -36 -323 -90 -462 -181 -244 -162 -465 -483 -528
-769 -31 -139 -5 -359 47 -387 19 -10 20 -9 15 23 -2 18 -12 67 -22 108 -41
183 21 397 190 650 163 245 388 412 656 485 130 36 329 45 449 21 220 -45 398
-161 488 -318 82 -142 110 -322 74 -465 -76 -299 -363 -626 -697 -792 -128
-64 -286 -116 -398 -131 -179 -25 -383 34 -529 153 -29 24 -80 58 -112 77
l-60 34 28 -37 c71 -92 217 -190 359 -240 86 -30 101 -32 227 -32 157 0 213
13 394 86 196 79 345 179 502 334 116 115 201 231 264 359 69 139 93 237 86
346 -14 220 -106 403 -259 517 -81 60 -223 127 -317 148 -99 23 -304 28 -395
11z"/>
<path d="M2570 19094 c-233 -43 -381 -109 -543 -241 -205 -168 -373 -484 -402
-755 -8 -74 8 -173 31 -199 22 -25 35 -15 27 21 l-5 30 48 -6 c27 -4 51 -9 54
-11 2 -2 -3 -23 -11 -46 -13 -37 -17 -42 -43 -39 -17 2 -25 -1 -21 -7 3 -6 13
-11 21 -11 8 0 14 -8 14 -17 0 -14 2 -15 9 -4 7 11 20 11 80 1 39 -7 71 -14
71 -15 0 -2 -7 -22 -15 -45 -8 -24 -13 -45 -11 -47 2 -2 10 15 19 39 l14 43
49 -3 c26 -1 52 -6 57 -11 6 -6 1 -36 -11 -75 -11 -36 -16 -63 -11 -60 5 3 9
9 9 14 0 5 9 34 21 65 l21 56 36 -6 c64 -11 63 -8 37 -86 -33 -97 -25 -100 10
-4 l28 76 41 -6 c23 -4 45 -11 49 -15 5 -4 -1 -40 -13 -80 -28 -94 -21 -100
10 -7 13 40 26 75 30 79 6 9 102 -1 119 -12 9 -5 6 -21 -9 -60 -29 -74 -19
-73 13 1 21 48 30 60 44 55 10 -3 40 -8 66 -12 52 -7 51 -4 32 -71 -3 -10 3 1
14 24 22 46 15 44 111 27 18 -3 21 -2 10 5 -8 4 -32 12 -53 15 -35 7 -38 10
-33 31 15 58 26 76 44 71 9 -3 43 -8 75 -12 37 -4 56 -10 53 -18 -3 -6 -10
-29 -17 -50 -11 -34 -21 -43 -74 -67 -89 -40 -177 -67 -279 -85 -172 -30 -357
8 -506 105 -30 19 -79 47 -108 62 -47 23 -50 24 -35 5 153 -181 435 -263 709
-207 330 68 712 359 863 658 140 276 105 577 -88 744 -60 52 -186 113 -287
140 -77 20 -303 34 -364 23z m140 -54 c0 -5 -5 -21 -12 -35 -10 -23 -16 -25
-75 -25 -66 0 -69 3 -53 44 9 24 14 26 75 26 36 0 65 -4 65 -10z m146 -3 c2
-2 -1 -20 -7 -40 l-10 -37 -67 6 c-37 4 -68 7 -68 8 -1 0 5 18 14 40 l15 39
60 -7 c33 -3 62 -7 63 -9z m-307 -26 c-10 -29 -11 -29 -72 -24 -64 6 -74 9
-65 19 9 8 99 32 125 33 20 1 21 -2 12 -28z m395 7 c53 -15 60 -21 51 -48 -7
-21 -12 -22 -67 -17 -33 3 -62 8 -65 10 -3 3 -2 19 2 36 7 34 17 37 79 19z
m147 -59 c34 -17 59 -32 58 -33 -4 -4 -141 12 -144 16 -4 5 14 48 20 48 3 0
33 -14 66 -31z m-714 11 c7 0 4 -21 -10 -65 l-21 -65 -43 0 c-24 0 -43 4 -43
8 0 5 7 31 16 58 19 56 40 77 69 70 11 -3 25 -6 32 -6z m153 -9 c0 -5 -10 -34
-21 -65 l-22 -56 -58 0 c-33 0 -59 3 -59 7 0 4 7 33 16 65 l17 58 63 0 c35 0
64 -4 64 -9z m125 -63 l-23 -63 -59 3 c-32 2 -59 5 -61 6 -2 2 11 43 33 104 3
8 26 12 69 12 l65 0 -24 -62z m-385 40 c0 -7 -9 -32 -20 -55 l-19 -43 -56 0
c-75 0 -72 19 13 69 73 44 82 48 82 29z m543 6 c13 -5 13 -13 -4 -64 l-20 -58
-67 6 c-37 2 -68 5 -69 6 -1 1 7 28 19 59 l21 57 53 0 c29 0 59 -3 67 -6z
m165 -18 c1 -2 -7 -28 -18 -58 l-21 -54 -62 4 c-34 2 -63 5 -65 7 -2 2 12 45
33 104 4 11 19 12 68 6 34 -3 63 -8 65 -9z m169 -20 c2 -1 -4 -26 -13 -56
l-16 -53 -75 7 c-42 3 -78 8 -80 9 -3 3 7 36 31 103 3 7 26 8 77 2 40 -5 74
-10 76 -12z m76 -46 l46 -51 -16 -37 c-9 -20 -21 -57 -28 -82 l-11 -45 -57 1
c-32 1 -57 5 -58 10 0 5 7 35 16 68 l17 58 56 -5 c38 -4 49 -3 32 2 -14 5 -37
9 -52 10 -16 1 -28 5 -28 10 0 24 24 111 31 111 4 0 28 -23 52 -50z m-1150
-102 l-16 -58 -54 0 c-29 0 -53 4 -53 9 0 15 123 122 131 114 4 -5 1 -34 -8
-65z m147 56 c0 -4 -10 -33 -21 -65 l-22 -59 -47 0 c-26 0 -49 3 -52 6 -4 3 3
32 14 65 l20 59 54 0 c30 0 54 -3 54 -6z m117 -6 c-2 -7 -12 -39 -21 -70 -16
-57 -17 -58 -54 -58 -61 0 -65 8 -41 78 l21 62 50 0 c36 0 49 -4 45 -12z m142
0 c0 -7 -10 -40 -22 -73 l-22 -60 -55 4 c-30 1 -56 4 -58 5 -1 2 7 33 18 69
l21 67 59 0 c42 0 60 -4 59 -12z m136 0 c3 -3 -6 -34 -19 -69 l-24 -64 -56 -3
c-65 -3 -65 -4 -35 87 l22 63 53 -4 c30 -3 56 -7 59 -10z m165 -5 c0 -5 -10
-38 -22 -75 l-22 -68 -73 0 c-40 0 -73 3 -73 7 0 4 12 38 26 75 l26 68 69 0
c38 0 69 -3 69 -7z m149 -15 c0 -7 -10 -40 -22 -73 l-22 -60 -60 4 c-33 1 -62
5 -64 6 -1 2 7 33 19 69 l22 66 64 0 c45 0 64 -4 63 -12z m177 -10 c2 -2 -5
-33 -14 -68 l-18 -63 -80 2 c-43 1 -80 4 -82 6 -2 2 6 34 18 71 l23 67 74 -6
c41 -3 77 -7 79 -9z m209 -79 c15 -43 15 -52 -3 -120 l-18 -74 -47 -3 c-48 -3
-48 -3 -41 25 23 102 23 103 57 105 l32 1 -33 4 c-25 3 -32 8 -28 21 2 9 12
43 22 75 17 56 18 58 30 35 7 -12 20 -44 29 -69z m-1288 -19 l22 0 -23 -67
-23 -68 -46 -3 c-75 -5 -79 2 -48 81 l26 69 35 -6 c19 -3 45 -6 57 -6z m141
-15 c5 -4 -29 -119 -37 -127 -4 -4 -30 -5 -58 -2 l-51 7 19 56 c11 31 21 62
24 68 3 9 18 11 52 6 26 -3 49 -7 51 -8z m118 -8 c3 -2 -3 -32 -13 -66 l-18
-61 -49 0 -48 0 6 32 c3 18 11 50 17 71 l10 39 45 -5 c25 -2 47 -7 50 -10z
m141 -9 c-2 -7 -13 -39 -23 -70 l-18 -58 -47 0 c-26 0 -51 5 -55 11 -3 6 2 38
11 70 l18 59 60 0 c43 0 58 -3 54 -12z m131 -10 c-3 -7 -13 -37 -22 -65 l-18
-53 -55 0 -55 0 7 31 c4 18 14 47 21 65 14 33 16 34 70 34 41 0 55 -3 52 -12z
m149 2 l21 0 -21 -65 -21 -65 -61 0 c-88 0 -92 5 -64 80 l23 62 50 -6 c28 -3
61 -6 73 -6z m171 -12 c-3 -7 -13 -37 -22 -65 l-18 -53 -64 0 c-35 0 -64 4
-64 9 0 7 14 52 35 109 3 8 27 12 71 12 49 0 65 -3 62 -12z m170 -61 l-20 -62
-82 4 c-44 2 -82 4 -83 5 -2 2 6 29 17 62 l20 59 84 -3 84 -3 -20 -62z m-1173
20 c-8 -21 -22 -37 -30 -37 -12 0 -9 10 11 40 32 48 40 47 19 -3z m1329 16
c-3 -16 -10 -45 -15 -65 l-10 -38 -66 0 c-57 0 -65 2 -60 18 3 9 11 38 18 65
l13 47 63 0 63 0 -6 -27z m145 -70 c1 -27 -3 -33 -20 -33 -14 0 -19 5 -16 14
3 8 9 32 13 53 6 31 8 34 15 18 4 -11 8 -35 8 -52z m-1506 -20 c-5 -47 -22
-73 -48 -73 l-26 0 28 50 c28 50 50 61 46 23z m136 8 c11 -7 11 -15 -1 -52
l-15 -44 -59 3 c-32 2 -60 5 -61 6 -2 2 4 24 13 49 16 47 16 47 62 47 26 0 53
-4 61 -9z m144 -8 c3 -5 -2 -29 -10 -55 -15 -52 -27 -57 -101 -42 l-30 6 16
49 16 49 52 0 c29 0 55 -3 57 -7z m109 -58 l-15 -55 -43 0 c-51 0 -57 7 -43
51 6 19 12 40 15 47 2 7 22 12 52 12 l49 0 -15 -55z m116 49 l30 -6 -17 -52
-18 -51 -51 -3 c-57 -3 -60 0 -41 59 6 19 12 40 15 47 4 13 34 15 82 6z m140
-64 l-22 -60 -46 0 c-26 0 -49 3 -53 6 -5 5 3 32 28 102 3 7 24 12 59 12 l55
0 -21 -60z m145 54 l45 -6 -21 -59 -21 -59 -73 0 c-80 0 -83 3 -59 61 7 19 16
42 19 52 7 19 33 21 110 11z m194 -16 c-2 -7 -13 -37 -23 -65 l-19 -53 -62 0
c-70 0 -73 4 -49 61 7 19 16 42 19 52 5 14 19 17 73 17 49 0 65 -3 61 -12z
m193 4 c0 -4 -9 -36 -21 -70 l-21 -62 -81 6 c-45 4 -84 8 -86 10 -2 1 5 24 14
51 9 26 19 54 21 61 4 14 174 18 174 4z m139 -59 c-10 -38 -19 -69 -19 -70 0
-2 -32 -3 -71 -3 -60 0 -70 2 -65 15 3 9 13 40 22 70 l15 55 69 0 69 0 -20
-67z m115 20 c-8 -27 -17 -58 -20 -70 -5 -20 -13 -23 -51 -23 -35 0 -44 3 -40
14 3 8 11 34 17 58 6 24 13 49 15 56 3 7 22 12 49 12 l45 0 -15 -47z m70 10
c-11 -80 -28 -141 -60 -210 -25 -56 -38 -73 -53 -73 -12 0 -21 2 -21 5 0 2 18
59 40 126 22 67 40 126 40 130 0 26 22 59 39 59 17 0 19 -5 15 -37z m-1537
-45 c-2 -7 -10 -30 -18 -50 -10 -29 -18 -38 -36 -38 -28 0 -29 16 -6 65 12 26
23 35 41 35 15 0 22 -5 19 -12z m137 -8 c9 -9 -10 -77 -25 -86 -6 -3 -35 -3
-65 1 -60 7 -59 6 -32 77 9 25 12 27 61 21 29 -3 56 -9 61 -13z m143 -14 c2
-1 -4 -23 -12 -47 l-15 -44 -48 3 c-74 5 -74 5 -54 58 l17 46 54 -6 c30 -4 56
-8 58 -10z m119 -10 c1 0 -5 -22 -12 -47 l-14 -47 -47 6 c-27 2 -49 6 -50 7
-2 1 4 23 13 49 l16 47 47 -7 c25 -4 47 -7 47 -8z m122 -12 c5 -4 -18 -77 -27
-87 -4 -4 -29 -4 -55 -1 -51 7 -52 10 -26 78 9 24 13 25 57 19 26 -3 50 -7 51
-9z m99 -4 l31 0 -16 -51 -16 -51 -45 6 c-24 3 -47 8 -49 11 -3 2 1 25 8 50
11 40 16 46 34 41 12 -3 35 -6 53 -6z m150 -10 l52 0 -18 -52 -18 -53 -64 4
c-77 4 -82 7 -75 37 16 62 26 76 49 70 12 -3 45 -6 74 -6z m160 -10 l42 0 -18
-52 c-17 -51 -19 -53 -57 -54 -21 -1 -51 0 -66 3 l-26 5 14 42 c8 22 17 47 19
55 3 8 13 11 28 7 12 -3 41 -6 64 -6z m231 -12 c-3 -7 -13 -37 -23 -66 l-17
-54 -77 7 c-42 4 -79 9 -83 11 -6 4 1 31 27 102 3 8 31 12 91 12 65 0 85 -3
82 -12z m162 -1 c0 -7 -10 -41 -21 -76 l-22 -63 -66 7 c-36 4 -68 8 -70 10 -1
2 7 33 19 69 l22 66 69 0 c50 0 69 -4 69 -13z m106 -12 c-4 -14 -16 -50 -27
-80 -18 -48 -24 -55 -47 -55 -51 0 -54 10 -30 88 l23 72 43 0 c42 0 44 -1 38
-25z m-1466 -8 c0 -2 -7 -24 -16 -50 -13 -39 -20 -47 -40 -47 -22 0 -24 3 -18
28 15 60 23 72 49 72 14 0 25 -1 25 -3z m138 -22 c9 -9 -24 -80 -36 -79 -7 1
-34 2 -62 3 -27 0 -50 5 -50 10 0 5 7 25 16 46 l15 38 57 -7 c31 -4 58 -9 60
-11z m140 -11 c6 -4 -18 -73 -27 -79 -5 -2 -31 -2 -60 2 -56 6 -61 15 -36 63
14 28 17 29 68 23 28 -3 54 -7 55 -9z m122 -11 c0 -5 -5 -25 -11 -47 -10 -37
-12 -38 -47 -32 -20 3 -45 6 -54 6 -10 0 -15 6 -13 13 25 70 22 67 75 67 27 0
50 -3 50 -7z m115 -13 c4 -6 1 -26 -5 -45 -11 -33 -14 -35 -55 -35 -52 0 -60
9 -45 55 11 33 14 35 55 35 24 0 47 -5 50 -10z m103 -6 l30 -6 -15 -45 -15
-44 -47 7 c-25 4 -47 8 -49 9 -2 2 2 21 9 44 13 44 23 48 87 35z m153 -14 c44
0 46 -6 23 -66 -16 -41 -16 -41 -52 -33 -21 5 -52 9 -69 9 -38 0 -40 10 -17
65 14 34 18 37 46 31 17 -3 48 -6 69 -6z m187 -25 c4 -4 -25 -93 -34 -103 -2
-3 -114 18 -121 23 -2 1 4 23 13 50 l17 48 60 -7 c33 -3 63 -8 65 -11z m154
-11 l36 -5 -18 -55 c-11 -30 -21 -58 -24 -63 -5 -8 -139 19 -150 30 -3 3 1 29
10 58 l15 52 47 -6 c26 -3 64 -8 84 -11z m-1152 -1 c0 -24 -35 -93 -47 -93
-12 0 -13 9 -8 43 4 23 9 45 12 50 5 9 43 9 43 0z m148 -8 c1 -1 -4 -17 -11
-36 -8 -19 -17 -41 -20 -50 -4 -13 -14 -15 -62 -8 -31 4 -59 10 -62 13 -3 2 3
25 12 49 l17 45 61 -5 c34 -3 63 -7 65 -8z m1201 -11 c2 -1 -9 -34 -23 -72
l-27 -69 -47 9 c-26 5 -57 11 -69 14 l-23 4 19 48 c10 26 20 54 24 63 5 14 17
16 74 12 37 -3 70 -7 72 -9z m-1067 0 c11 -10 -30 -99 -47 -102 -10 -2 -37 -1
-60 2 l-43 7 16 49 16 50 56 0 c31 0 59 -2 62 -6z m123 -16 c3 -3 -2 -28 -10
-56 -17 -56 -19 -57 -88 -46 -41 7 -41 9 -11 83 14 33 15 33 60 28 25 -2 47
-7 49 -9z m1045 -4 c0 -8 -5 -24 -11 -36 -6 -11 -8 -22 -5 -25 3 -4 13 10 21
30 11 26 22 37 36 37 21 0 21 -1 4 -27 -64 -102 -161 -208 -265 -292 -88 -71
-210 -154 -217 -147 -2 2 4 20 13 40 12 23 25 36 38 37 17 1 18 2 4 6 -10 2
-18 5 -18 6 0 5 43 113 50 128 8 14 18 15 67 8 32 -5 68 -11 81 -14 12 -3 21
-2 20 3 -2 4 8 31 21 60 17 37 30 52 45 53 21 2 21 2 0 6 -22 4 -22 5 9 74 30
68 31 69 69 69 28 0 38 -4 38 -16z m-922 -9 c2 -2 -4 -28 -14 -59 l-17 -55
-46 6 c-25 3 -48 7 -50 9 -2 2 5 28 14 59 l18 56 46 -7 c25 -4 47 -8 49 -9z
m117 -17 c7 -7 -29 -110 -38 -109 -4 1 -19 1 -34 1 -52 0 -57 11 -38 70 l17
52 45 -5 c24 -2 46 -7 48 -9z m118 -14 c46 -6 48 -8 42 -32 -3 -14 -13 -41
-21 -60 -12 -29 -17 -33 -41 -28 -16 3 -47 8 -70 11 l-41 6 20 61 c18 52 23
59 42 55 11 -3 43 -9 69 -13z m189 -30 c4 -2 -1 -28 -11 -57 l-18 -52 -54 4
c-78 5 -80 7 -57 70 l20 53 57 -7 c31 -4 59 -9 63 -11z m-993 -11 c0 -10 -4
-27 -9 -38 -7 -16 -9 -13 -9 18 -1 20 4 37 9 37 6 0 10 -8 9 -17z m139 -8 c3
-3 -4 -28 -15 -57 l-21 -53 -53 3 c-30 2 -57 7 -62 11 -4 4 3 31 15 60 l22 53
55 -6 c30 -4 57 -9 59 -11z m976 -4 c33 -6 61 -11 62 -11 3 0 -37 -104 -41
-108 -3 -3 -116 16 -142 23 -12 4 -9 18 22 103 3 7 13 11 22 8 10 -3 45 -10
77 -15z m-836 -15 c2 -3 -4 -30 -14 -61 l-18 -57 -56 7 c-30 4 -59 9 -63 12
-8 5 -3 25 20 81 l14 35 57 -7 c31 -4 58 -8 60 -10z m128 -19 c2 -2 -4 -29
-13 -61 l-16 -58 -56 7 c-31 4 -57 8 -59 9 -2 2 12 46 33 105 4 10 18 12 57 8
28 -4 52 -8 54 -10z m872 4 c23 -5 45 -11 48 -14 4 -3 -2 -26 -11 -51 -20 -51
-23 -52 -107 -35 l-56 11 22 49 c23 53 28 55 104 40z m-761 -16 c9 -3 6 -21
-9 -65 l-20 -61 -47 7 c-25 4 -47 7 -48 9 -2 1 6 29 18 63 l20 61 37 -6 c20
-2 42 -6 49 -8z m122 -21 c2 -2 -4 -31 -14 -64 l-18 -61 -46 7 c-25 4 -48 8
-50 11 -4 3 3 29 30 101 8 20 13 22 51 16 24 -4 45 -8 47 -10z m137 -14 c29 0
30 -8 3 -80 l-20 -57 -57 9 c-85 13 -82 9 -58 78 l21 62 44 -6 c24 -3 54 -6
67 -6z m167 -30 c10 -9 -31 -130 -43 -130 -17 0 -114 21 -118 25 -3 3 6 32 19
65 l24 61 55 -7 c30 -3 59 -10 63 -14z m148 -19 l37 -6 -25 -68 -26 -68 -46 7
c-25 3 -60 9 -77 13 l-32 6 25 67 25 68 42 -6 c22 -4 57 -9 77 -13z m-890 -17
l36 -6 -11 -44 c-6 -25 -16 -45 -21 -45 -41 1 -116 15 -121 23 -4 5 2 28 12
49 15 34 21 39 43 35 14 -3 42 -8 62 -12z m126 -19 l42 -7 -14 -45 c-8 -25
-15 -46 -17 -48 -4 -4 -100 13 -105 19 -2 2 1 24 8 50 9 35 15 45 28 42 9 -2
35 -7 58 -11z m106 -15 c42 0 48 -12 34 -60 -13 -44 -13 -45 -52 -42 -22 2
-44 7 -48 11 -4 5 -3 29 4 55 8 34 16 46 26 42 8 -3 24 -6 36 -6z m160 -31 c2
-2 -3 -25 -10 -52 -13 -42 -17 -47 -39 -42 -79 16 -75 14 -68 43 17 68 19 70
68 62 26 -4 48 -9 49 -11z m110 -15 c26 -3 47 -7 47 -8 0 -1 -7 -24 -16 -50
l-16 -47 -57 7 c-31 3 -59 8 -63 11 -12 6 -10 30 7 69 11 26 19 34 32 30 10
-3 39 -8 66 -12z m145 -23 c23 -5 45 -11 48 -14 12 -11 -29 -98 -42 -93 -8 3
-36 8 -64 12 -55 7 -55 9 -38 65 12 43 19 45 96 30z"/>
<path d="M12291 18851 c23 -19 23 -20 5 -27 -12 -5 -21 -3 -24 4 -6 20 -32 13
-32 -8 0 -23 42 -44 71 -35 26 9 26 61 0 75 -33 17 -45 11 -20 -9z"/>
<path d="M12015 18730 c-16 -18 -16 -21 -2 -43 20 -31 50 -39 76 -20 26 18 27
45 3 66 -25 23 -55 21 -77 -3z m55 -21 c0 -20 -15 -26 -25 -9 -9 15 3 43 15
35 5 -3 10 -15 10 -26z"/>
<path d="M12390 18566 c-17 -32 -7 -56 23 -56 34 0 57 29 46 58 -12 31 -52 29
-69 -2z m40 -11 c0 -8 -4 -15 -9 -15 -5 0 -11 7 -15 15 -3 9 0 15 9 15 8 0 15
-7 15 -15z"/>
<path d="M12184 18515 c11 -8 16 -21 13 -30 -8 -19 -27 -20 -27 0 0 8 -7 15
-15 15 -23 0 -19 -47 5 -60 51 -27 95 36 50 72 -12 10 -27 18 -34 18 -6 0 -3
-7 8 -15z"/>
<path d="M4106 18484 c-18 -18 -21 -56 -6 -85 6 -10 34 -38 63 -61 29 -23 43
-38 32 -34 -33 13 -118 24 -135 18 -44 -16 -39 -61 12 -107 l41 -38 -52 7
c-62 8 -101 -10 -101 -47 0 -32 33 -60 117 -99 l71 -33 -110 0 c-104 0 -111
-1 -129 -24 -21 -26 -18 -53 9 -84 42 -47 149 -65 442 -73 133 -4 220 -11 248
-20 55 -18 136 -18 171 0 39 21 87 77 101 121 24 72 -16 155 -97 202 -27 15
-146 94 -267 176 -120 82 -243 160 -273 173 -62 28 -115 31 -137 8z m132 -34
c57 -26 463 -301 457 -310 -2 -4 -9 -19 -14 -33 l-10 -27 -53 29 c-29 15 -111
59 -183 96 -216 113 -315 187 -315 236 0 27 3 29 38 29 20 0 56 -9 80 -20z
m-57 -160 c98 -33 482 -229 475 -243 -28 -63 -76 -185 -76 -194 0 -16 -149
-17 -371 -3 -213 14 -289 39 -289 97 0 30 32 43 104 43 89 0 317 -44 466 -90
73 -22 80 -23 80 -11 0 4 -33 17 -72 29 -249 71 -301 87 -377 118 -114 48
-143 69 -139 103 3 23 8 26 46 29 68 5 131 -13 357 -99 260 -101 242 -94 230
-81 -10 10 -219 98 -377 158 -93 35 -128 54 -170 93 -31 27 -34 41 -16 59 18
18 61 15 129 -8z m491 -313 c-31 -80 -60 -147 -64 -147 -8 0 18 77 62 180 17
41 36 86 41 99 5 13 12 22 14 19 2 -2 -21 -70 -53 -151z m138 95 c40 -40 57
-91 46 -137 -9 -37 -72 -102 -111 -115 -39 -13 -109 -3 -101 14 14 33 75 188
90 229 10 26 22 47 28 47 6 0 27 -17 48 -38z"/>
<path d="M1560 17832 c-16 -5 -271 -168 -660 -423 -135 -88 -301 -196 -370
-241 -69 -45 -192 -125 -275 -179 -82 -53 -174 -107 -202 -119 l-53 -22 0
-124 0 -123 65 45 c68 48 84 67 87 107 2 26 58 63 828 560 179 116 388 251
465 302 77 51 155 100 173 111 31 18 44 54 19 54 -16 0 -118 -63 -542 -335
-430 -275 -495 -318 -742 -482 -111 -74 -207 -132 -212 -128 -24 14 -8 36 50
70 33 19 67 41 74 49 7 7 49 35 92 61 43 27 114 72 158 100 44 28 105 67 135
87 87 56 482 315 515 338 17 11 109 73 205 136 168 110 219 149 209 157 -2 3
-11 2 -19 -1z"/>
<path d="M7302 17771 c-65 -22 -100 -54 -108 -97 -3 -18 8 -230 25 -471 50
-701 59 -879 43 -869 -25 16 -1084 301 -1154 311 -113 17 -188 -27 -209 -120
-21 -95 10 -192 74 -226 14 -8 361 -63 842 -134 55 -8 184 -29 286 -47 l186
-31 7 -156 c13 -329 28 -1081 22 -1113 -4 -21 -14 -37 -28 -43 -32 -14 -53
-56 -44 -89 15 -62 118 -84 217 -47 57 22 78 44 79 82 0 31 -24 55 -64 65 -29
7 -29 7 9 -28 l39 -35 -26 -26 c-53 -53 -207 -58 -223 -7 -14 43 22 69 115 84
61 10 63 25 59 384 -3 281 -1 336 18 487 12 94 25 221 29 283 l7 112 31 -5
c328 -54 497 -85 836 -155 162 -34 320 -66 350 -71 65 -12 82 -23 99 -65 12
-30 46 -54 77 -54 27 0 61 30 79 69 26 58 18 171 -15 206 -30 32 -60 32 -94
-1 -41 -42 -33 -62 10 -24 l37 32 21 -21 c31 -31 31 -157 0 -198 -47 -63 -94
-28 -94 70 0 41 -5 63 -17 76 -17 18 -145 50 -458 116 -66 13 -221 58 -345 99
-124 41 -287 93 -364 115 -76 22 -140 42 -143 45 -5 5 6 268 27 675 5 97 12
294 16 438 l7 261 -27 56 c-17 36 -38 62 -56 71 -39 20 -113 18 -178 -4z m151
-32 c13 -6 32 -25 43 -42 17 -29 19 -50 17 -232 -3 -205 -14 -539 -33 -910 -5
-115 -14 -322 -20 -460 -9 -223 -33 -514 -45 -555 -4 -12 -15 -15 -39 -12
l-34 4 -1 151 c-2 341 -36 969 -91 1710 -11 154 -16 267 -11 280 13 32 35 49
89 63 59 16 95 17 125 3z m-1156 -1180 c87 -22 248 -65 358 -96 528 -145 520
-143 569 -143 l45 0 5 -42 c3 -24 7 -68 9 -99 l3 -56 -60 13 c-97 20 -648 109
-921 149 -301 44 -318 48 -345 83 -19 23 -21 37 -18 103 3 86 18 112 72 129
45 13 105 5 283 -41z m1511 -420 c329 -100 313 -93 295 -130 -8 -16 -16 -29
-18 -29 -1 0 -47 9 -101 20 -55 12 -171 32 -259 45 -88 14 -173 27 -190 30
l-30 5 3 76 c3 66 6 75 20 69 9 -3 135 -42 280 -86z m362 -119 c17 -9 18 -14
8 -38 -7 -15 -13 -28 -14 -30 0 -1 -10 1 -21 5 -17 7 -18 13 -11 41 9 35 11
36 38 22z m100 -15 c0 -4 -7 -19 -15 -35 -25 -49 -66 -35 -44 14 8 17 20 26
36 26 12 0 23 -2 23 -5z m51 -49 c-11 -22 -21 -31 -33 -28 -15 4 -15 7 -1 37
11 22 21 31 33 28 15 -4 16 -7 1 -37z m82 18 c9 -10 -22 -64 -37 -64 -21 0
-25 10 -14 41 9 27 35 38 51 23z m87 -26 c-1 -25 -27 -48 -54 -48 -26 0 -26 0
-11 30 11 21 23 30 40 30 14 0 25 -6 25 -12z m80 -14 c0 -21 -23 -54 -38 -54
-28 0 -33 10 -17 40 11 21 20 27 35 23 11 -3 20 -7 20 -9z m64 -10 c12 -5 13
-10 3 -32 -6 -15 -12 -29 -13 -30 -1 -2 -12 -1 -23 3 -17 5 -18 10 -9 35 10
31 16 34 42 24z m89 -22 c3 -4 3 -20 0 -35 -5 -25 -9 -28 -32 -22 -35 9 -36
11 -23 40 11 24 45 34 55 17z m75 -44 c-2 -27 -7 -32 -23 -30 -27 5 -27 6 -19
36 4 17 13 26 26 26 16 0 19 -6 16 -32z m-1404 -364 c9 -3 16 -17 16 -31 0
-19 -4 -24 -16 -19 -9 3 -24 6 -35 6 -14 0 -19 7 -19 25 0 26 19 32 54 19z
m14 -88 c2 -2 2 -13 0 -23 -3 -17 -8 -18 -35 -11 -24 6 -33 14 -33 30 0 18 4
20 32 14 17 -3 33 -8 36 -10z m0 -90 c3 -15 0 -18 -19 -13 -13 4 -30 7 -36 7
-7 0 -13 8 -13 19 0 16 5 17 32 12 21 -4 34 -14 36 -25z m-10 -46 c6 0 12 -11
12 -25 0 -23 -3 -25 -27 -19 -34 8 -29 4 -38 33 -7 21 -5 23 16 18 13 -4 30
-7 37 -7z m-10 -76 c16 -5 22 -14 22 -35 0 -27 -1 -28 -30 -18 -22 8 -30 17
-30 35 0 26 3 27 38 18z m22 -115 c0 -14 -7 -19 -30 -19 -27 0 -30 3 -30 29 0
29 1 30 30 20 19 -7 30 -18 30 -30z m-2 -80 c3 -23 0 -25 -27 -21 -25 3 -31 9
-31 29 0 21 4 24 28 21 21 -2 28 -9 30 -29z m1 -71 c11 -30 6 -38 -30 -38 -26
0 -29 3 -29 30 0 25 4 30 25 30 17 0 28 -7 34 -22z m8 -84 c7 -19 -13 -34 -44
-34 -18 0 -23 6 -23 25 0 21 5 25 30 25 19 0 33 -6 37 -16z"/>
<path d="M13600 16545 c-25 -8 -59 -28 -75 -45 -30 -31 -30 -33 -29 -138 0
-59 13 -271 27 -472 25 -344 57 -876 57 -956 0 -36 -1 -36 -32 -30 -84 17
-700 117 -928 151 -310 45 -352 55 -368 90 -17 37 -15 150 3 185 19 36 72 54
137 47 56 -7 239 -53 533 -134 110 -30 223 -61 250 -68 28 -8 108 -30 180 -49
127 -35 205 -45 205 -27 0 5 -24 16 -52 24 -671 190 -1048 289 -1121 295 -144
11 -212 -68 -192 -223 7 -61 40 -110 84 -126 14 -6 158 -30 320 -54 348 -52
493 -74 773 -121 114 -19 209 -34 211 -34 5 0 15 -267 22 -585 3 -121 8 -327
11 -457 l6 -238 -41 -37 c-105 -94 10 -188 166 -137 108 35 124 117 30 153
-36 14 -34 1 3 -24 68 -44 4 -107 -110 -109 -44 -1 -63 4 -79 18 -45 41 -16
80 73 98 88 17 87 14 84 391 -3 271 0 336 19 492 12 99 25 226 29 283 4 65 11
102 18 102 6 0 76 -11 156 -25 175 -30 170 -30 170 -6 0 22 -5 23 -155 45
-130 19 -180 27 -182 30 -1 1 1 35 4 74 5 61 9 72 22 67 9 -3 70 -22 136 -42
66 -19 132 -39 148 -43 24 -8 27 -6 27 14 0 21 -12 27 -122 59 -68 20 -142 41
-165 47 l-43 11 0 67 c0 37 5 148 10 247 6 99 17 329 25 510 24 546 21 598
-42 661 -31 32 -38 34 -96 33 -34 0 -82 -7 -107 -14z m161 -38 c26 -20 47 -60
54 -103 7 -44 -18 -799 -30 -934 -3 -30 -12 -233 -20 -450 -13 -339 -33 -632
-50 -706 -4 -16 -11 -19 -38 -16 l-34 4 -6 271 c-10 419 -47 1073 -93 1659
-15 201 -14 219 20 247 43 36 164 53 197 28z m-51 -2265 c0 -26 -2 -28 -35
-24 -29 3 -35 8 -35 28 0 21 5 24 35 24 32 0 35 -3 35 -28z m-16 -58 c9 -3 16
-16 16 -29 0 -21 -2 -21 -35 -11 -23 7 -35 17 -35 28 0 18 24 23 54 12z m-3
-74 c13 0 19 -7 19 -21 0 -15 -4 -19 -16 -15 -9 3 -24 6 -35 6 -13 0 -19 7
-19 21 0 15 4 19 16 15 9 -3 24 -6 35 -6z m-3 -66 c14 -4 22 -14 22 -29 0 -20
-3 -22 -32 -16 -24 5 -34 13 -36 29 -4 23 6 26 46 16z m0 -80 c16 -5 22 -14
22 -34 0 -27 -1 -28 -30 -17 -21 8 -30 18 -30 34 0 25 3 26 38 17z m-3 -86
c36 -16 33 -48 -5 -48 -27 0 -30 3 -30 30 0 34 0 34 35 18z m25 -104 c0 -22
-3 -25 -22 -20 -13 3 -26 6 -30 6 -5 0 -8 9 -8 20 0 16 7 20 30 20 26 0 30 -4
30 -26z m0 -84 c0 -26 -3 -29 -30 -27 -26 2 -30 6 -30 30 0 23 4 27 30 27 27
0 30 -3 30 -30z m0 -79 c0 -12 -9 -20 -25 -23 -29 -6 -35 -2 -35 24 0 13 8 18
30 18 23 0 30 -5 30 -19z"/>
<path d="M10905 15334 c-131 -18 -315 -92 -397 -160 -32 -27 -43 -32 -50 -22
-6 8 -7 -1 -3 -27 3 -22 10 -76 15 -120 36 -304 128 -544 325 -845 83 -127
233 -279 385 -391 57 -42 242 -144 311 -172 35 -14 96 -33 134 -41 39 -9 87
-21 107 -26 20 -6 81 -14 135 -19 208 -19 385 8 543 82 77 36 166 95 157 103
-3 3 -43 -14 -88 -37 -91 -46 -201 -89 -225 -89 -31 0 26 58 64 65 55 10 190
54 252 81 50 22 58 30 84 85 27 57 28 67 23 152 -9 155 -54 296 -169 534 -11
23 -31 52 -44 64 -13 12 -24 30 -24 40 0 42 -192 264 -272 315 -21 13 -38 28
-38 33 0 5 -15 18 -32 30 -18 11 -54 35 -79 53 -118 84 -164 110 -299 176
-132 64 -174 79 -310 111 -91 22 -168 29 -320 29 -85 0 -168 -2 -185 -4z m264
-56 c0 -7 -10 -40 -22 -73 -26 -70 -16 -67 -197 -45 -114 14 -299 9 -388 -10
-29 -7 -52 -13 -50 -15 2 -1 84 -6 183 -10 164 -6 390 -27 400 -37 7 -6 -73
-136 -131 -213 -60 -80 -261 -295 -275 -295 -11 0 -62 106 -104 216 -14 38
-35 92 -46 121 -28 71 -49 152 -49 189 0 30 4 32 128 86 150 66 188 77 302 88
145 13 250 12 249 -2z m391 -71 c43 -15 140 -57 260 -115 30 -14 69 -38 85
-52 17 -15 77 -60 135 -100 114 -80 286 -246 343 -332 19 -29 59 -100 90 -158
l56 -105 -36 -65 c-32 -56 -38 -62 -47 -45 -6 10 -30 47 -53 82 l-43 63 20 32
c10 17 17 35 14 40 -9 15 -36 8 -53 -13 l-17 -21 -28 36 c-21 28 -25 40 -17
50 17 20 -13 43 -34 26 -11 -9 -20 -6 -46 18 -30 28 -31 30 -15 59 14 28 14
32 -1 44 -13 12 -18 11 -31 -9 -19 -28 -33 -28 -62 3 -20 21 -22 28 -12 50 15
33 15 32 -5 39 -11 5 -23 0 -33 -14 l-15 -20 -32 22 c-22 15 -31 28 -27 38 16
37 16 60 1 60 -8 0 -20 -7 -27 -15 -17 -20 -25 -19 -60 6 -28 21 -28 23 -14
51 25 48 -10 69 -40 23 l-16 -24 -35 20 c-40 24 -39 21 -20 59 14 26 13 30 -3
39 -13 8 -22 4 -42 -19 l-25 -29 -42 25 c-43 26 -43 26 -27 55 26 52 -13 71
-44 20 l-17 -28 -88 35 c-68 27 -87 39 -83 51 3 9 17 48 31 88 l27 71 42 -12
c22 -7 61 -20 86 -29z m-79 -232 c45 -23 45 -22 26 -43 -16 -18 -16 -20 2 -36
19 -17 20 -17 36 13 l16 31 49 -25 c45 -23 49 -28 40 -46 -9 -15 -8 -24 1 -36
12 -13 15 -13 31 7 l18 22 35 -22 c19 -12 35 -24 35 -27 0 -4 -11 -21 -26 -40
l-25 -33 30 0 c20 0 35 8 48 25 l18 26 34 -29 c29 -24 32 -31 23 -49 -9 -17
-8 -24 4 -34 14 -11 18 -10 29 4 16 22 25 21 58 -8 23 -20 26 -28 18 -44 -8
-14 -7 -22 5 -32 13 -11 18 -10 33 9 l16 22 34 -28 c33 -28 34 -29 17 -54 -15
-23 -15 -26 0 -39 14 -11 18 -10 33 10 15 20 21 22 39 12 28 -15 44 -45 31
-58 -6 -6 -2 -16 11 -28 11 -10 20 -13 20 -7 0 7 6 12 14 12 19 0 69 -67 56
-75 -12 -8 -13 -25 0 -45 7 -12 11 -12 28 3 19 17 21 16 53 -34 19 -29 38 -61
44 -71 5 -10 13 -18 17 -18 45 0 -170 -311 -336 -487 l-87 -92 -107 5 c-59 3
-125 12 -147 19 -22 7 -60 18 -85 25 -79 21 -272 112 -354 167 -44 29 -108 79
-143 110 -35 32 -68 60 -72 63 -11 7 -128 145 -219 259 l-73 91 38 32 c193
165 390 406 473 579 l23 47 52 -18 c28 -10 67 -26 86 -35z m-853 -371 c17 -34
28 -64 25 -68 -24 -24 -44 13 -83 154 -26 97 -25 110 4 35 13 -33 37 -88 54
-121z m237 -366 c88 -116 311 -341 396 -398 85 -59 238 -137 318 -165 90 -30
247 -65 303 -66 24 -1 53 -4 66 -7 22 -7 21 -8 -11 -34 -33 -26 -36 -26 -108
-17 -301 37 -575 175 -832 418 -74 69 -257 311 -257 339 0 12 22 32 36 32 6 0
46 -46 89 -102z m1754 -190 c12 -53 13 -200 1 -238 -4 -14 -8 -19 -9 -12 -1 6
-5 12 -9 12 -4 0 -6 -16 -4 -35 3 -26 0 -35 -11 -35 -8 0 -70 -16 -137 -35
-67 -20 -124 -34 -126 -33 -2 2 24 42 57 88 34 47 82 119 107 162 l46 77 18
-47 c9 -26 22 -67 29 -92 6 -25 14 -39 16 -33 3 7 -7 54 -22 104 l-26 92 23
43 c12 24 25 40 29 36 3 -4 11 -28 18 -54z"/>
<path d="M290 14304 c-56 -11 -157 -47 -221 -80 -65 -32 -69 -36 -69 -69 l0
-34 58 34 c31 19 100 48 152 66 91 30 114 33 246 30 l41 -1 11 -127 c7 -71 14
-173 17 -227 3 -54 10 -180 16 -280 6 -100 12 -281 14 -404 2 -189 0 -224 -12
-229 -8 -3 -60 -1 -116 5 -115 11 -276 60 -369 111 -52 29 -58 30 -58 13 0
-49 237 -134 423 -152 l125 -12 6 -52 c3 -28 3 -137 -1 -243 l-6 -192 -46 -7
c-103 -16 -315 33 -439 100 l-62 34 0 -35 c0 -33 2 -35 82 -73 132 -61 218
-80 361 -80 221 0 377 44 536 151 198 132 334 326 399 568 22 83 25 117 26
256 0 144 -2 170 -27 260 -40 149 -113 288 -199 380 -80 85 -202 171 -304 214
-107 43 -268 73 -424 76 -74 2 -146 1 -160 -1z m359 -75 c71 -12 154 -36 219
-65 35 -15 42 -23 37 -39 -3 -11 -11 -77 -17 -146 -9 -106 -8 -138 5 -204 18
-86 62 -188 106 -243 69 -89 134 -308 101 -346 -25 -31 -136 -102 -200 -129
-89 -37 -253 -74 -305 -68 -6 1 -11 111 -12 305 -1 167 -6 362 -12 433 -6 70
-13 164 -16 208 -6 95 -23 248 -31 288 -7 32 -20 31 125 6z m452 -229 c124
-122 199 -271 229 -451 l12 -76 -34 -54 c-19 -30 -63 -87 -98 -127 l-64 -74
-13 75 c-14 86 -37 144 -89 224 -70 108 -110 203 -121 283 -10 73 -9 202 3
288 l5 43 42 -23 c23 -13 81 -61 128 -108z m245 -672 c-16 -209 -82 -404 -176
-518 l-21 -25 7 100 c3 58 1 141 -6 199 l-12 98 54 48 c29 26 75 79 102 119
27 39 51 71 54 71 2 0 1 -42 -2 -92z m-222 -428 c-7 -178 0 -164 -122 -261
-93 -74 -192 -122 -321 -155 -57 -14 -104 -24 -105 -22 -1 2 1 55 5 118 4 63
5 172 2 242 l-5 126 29 5 c15 3 60 11 98 17 129 22 258 76 355 149 l55 42 7
-53 c5 -29 5 -123 2 -208z"/>
<path d="M710 14181 c0 -13 29 -35 37 -28 7 8 -15 37 -28 37 -5 0 -9 -4 -9 -9z"/>
<path d="M628 14154 c-8 -13 9 -54 22 -54 13 0 12 10 -4 39 -7 13 -16 20 -18
15z"/>
<path d="M700 14110 c0 -19 23 -59 31 -54 5 3 2 18 -6 35 -16 29 -25 37 -25
19z"/>
<path d="M800 14112 c0 -5 7 -17 15 -28 15 -19 20 -8 9 20 -6 17 -24 22 -24 8z"/>
<path d="M760 14073 c0 -22 17 -49 25 -41 8 8 -5 58 -16 58 -5 0 -9 -8 -9 -17z"/>
<path d="M813 13986 c4 -10 7 -22 7 -27 0 -5 5 -9 11 -9 15 0 7 43 -10 48 -10
3 -12 0 -8 -12z"/>
<path d="M760 13971 c0 -19 17 -38 25 -29 7 7 -7 48 -16 48 -5 0 -9 -9 -9 -19z"/>
<path d="M81 14046 c41 -85 43 -94 47 -200 5 -138 -11 -206 -79 -333 -49 -93
-63 -137 -35 -114 32 27 116 191 132 257 15 65 22 225 11 269 -3 11 -8 33 -12
49 -11 41 -50 108 -80 136 -24 22 -22 16 16 -64z"/>
<path d="M5690 12910 c-268 -72 -488 -260 -606 -515 -131 -284 -122 -583 27
-878 52 -104 106 -173 217 -278 103 -99 198 -152 350 -195 88 -25 102 -26 255
-21 174 5 225 15 354 68 370 155 607 574 564 1001 -43 427 -299 722 -698 804
-171 35 -364 41 -463 14z m269 -188 c25 -330 33 -482 38 -794 l6 -328 -39 0
c-141 0 -327 49 -469 123 -116 61 -117 63 -105 127 12 61 36 112 104 215 26
39 56 89 67 112 67 139 67 376 -2 490 -61 102 -81 96 -28 -8 38 -76 41 -89 46
-188 4 -81 1 -122 -12 -176 -18 -74 -84 -205 -134 -269 -30 -38 -71 -131 -71
-164 -1 -51 -18 -42 -115 60 -114 120 -175 199 -175 227 0 32 50 181 82 246
111 221 330 403 553 459 80 20 99 22 176 18 l66 -4 12 -146z m101 133 c70 -9
210 -49 260 -75 36 -18 38 -22 30 -49 -4 -16 -11 -87 -15 -158 -6 -102 -4
-142 9 -198 18 -76 70 -186 115 -244 35 -45 78 -150 91 -220 18 -98 17 -101
-63 -158 -107 -75 -252 -127 -407 -146 l-46 -6 -1 297 c-1 163 -4 326 -8 362
-10 105 -13 139 -20 265 -3 66 -13 169 -21 228 -8 59 -14 110 -14 113 0 3 8 3
18 0 9 -2 42 -8 72 -11z m378 -141 c31 -20 89 -69 127 -108 106 -107 189 -280
215 -449 l10 -67 -45 -68 c-25 -37 -69 -94 -99 -127 l-54 -59 -7 49 c-11 79
-43 168 -86 236 -79 128 -116 214 -129 303 -6 46 -9 108 -6 138 3 29 5 83 6
121 0 37 2 67 5 67 3 0 32 -16 63 -36z m-1353 -644 c22 -42 175 -219 224 -258
l41 -33 -4 -66 c-5 -69 8 -343 20 -403 l7 -35 -33 30 c-137 126 -253 371 -280
591 -9 73 -5 204 6 204 2 0 10 -13 19 -30z m1710 -117 c-17 -218 -82 -408
-182 -532 -19 -23 -19 -23 -11 60 5 51 5 131 -2 203 l-10 119 52 47 c29 26 73
77 98 113 25 37 49 67 53 67 4 0 5 -35 2 -77z m-222 -438 c-5 -135 -8 -152
-27 -174 -48 -54 -176 -147 -251 -181 -73 -34 -261 -89 -268 -79 -2 2 -1 63 3
134 4 72 4 180 1 241 l-6 112 102 16 c157 26 267 70 383 154 l55 40 6 -57 c4
-31 4 -123 2 -206z m-1125 200 c142 -85 287 -130 455 -141 l97 -6 2 -56 c5
-153 -5 -427 -16 -434 -21 -14 -150 -8 -242 11 -106 22 -208 63 -286 115 l-56
37 -7 92 c-4 51 -9 101 -11 112 -8 40 -17 273 -11 289 8 21 6 21 75 -19z"/>
<path d="M6160 12798 c0 -9 7 -19 16 -22 25 -10 27 -1 4 19 -17 15 -20 16 -20
3z"/>
<path d="M6070 12765 c0 -12 24 -55 32 -55 11 0 10 17 -2 41 -9 17 -30 27 -30
14z"/>
<path d="M6147 12734 c-9 -10 22 -66 33 -59 6 4 4 18 -5 36 -17 31 -18 32 -28
23z"/>
<path d="M6250 12728 c0 -19 18 -43 25 -36 9 9 -4 48 -16 48 -5 0 -9 -6 -9
-12z"/>
<path d="M6200 12705 c0 -12 24 -55 32 -55 10 0 10 3 -2 34 -8 22 -30 37 -30
21z"/>
<path d="M6260 12608 c0 -19 18 -43 25 -36 9 9 -4 48 -16 48 -5 0 -9 -6 -9
-12z"/>
<path d="M6212 12589 c1 -12 8 -24 15 -26 7 -3 9 3 6 17 -8 29 -25 37 -21 9z"/>
<path d="M5477 11433 c-4 -6 0 -16 8 -23 21 -17 28 -8 11 15 -8 11 -15 14 -19
8z"/>
<path d="M5450 11382 c0 -13 31 -52 41 -52 5 0 3 14 -6 30 -14 28 -35 41 -35
22z"/>
<path d="M5525 11320 c13 -25 35 -41 35 -25 0 16 -26 55 -37 55 -11 0 -11 -6
2 -30z"/>
<path d="M5450 11301 c11 -22 29 -35 36 -28 9 8 -20 47 -34 47 -9 0 -10 -5 -2
-19z"/>
<path d="M5513 11265 c6 -19 16 -35 24 -35 17 0 16 4 -2 40 -21 41 -35 38 -22
-5z"/>
<path d="M5580 11276 c0 -15 18 -31 26 -23 7 7 -7 37 -17 37 -5 0 -9 -6 -9
-14z"/>
<path d="M5560 11231 c0 -13 26 -32 33 -24 8 7 -11 33 -24 33 -5 0 -9 -4 -9
-9z"/>
<path d="M30 12808 c0 -18 18 -34 28 -24 3 4 -2 14 -11 23 -16 16 -17 16 -17
1z"/>
<path d="M15 12740 c9 -16 20 -30 25 -30 14 0 12 12 -6 38 -23 33 -37 27 -19
-8z"/>
<path d="M70 12718 c1 -17 28 -53 35 -46 8 7 -16 58 -27 58 -4 0 -8 -6 -8 -12z"/>
<path d="M0 12702 c0 -19 19 -52 30 -52 16 0 12 16 -10 41 -11 14 -19 18 -20
11z"/>
<path d="M67 12645 c17 -35 42 -51 28 -17 -4 9 -10 25 -12 35 -3 9 -11 17 -19
17 -11 0 -10 -7 3 -35z"/>
<path d="M130 12663 c0 -5 4 -15 10 -23 11 -18 25 -7 17 15 -6 15 -27 21 -27
8z"/>
<path d="M117 12624 c-8 -14 8 -37 22 -33 8 3 8 10 -2 23 -8 11 -17 15 -20 10z"/>
<path d="M9445 11300 c-99 -3 -342 -17 -540 -30 -317 -20 -362 -25 -380 -41
-46 -44 18 -50 306 -30 584 42 1485 49 2119 16 201 -11 194 -6 210 -132 50
-394 55 -483 55 -1013 -1 -283 -4 -526 -8 -540 -6 -24 -12 -26 -168 -48 -143
-20 -166 -26 -205 -52 -23 -17 -45 -34 -48 -38 -3 -5 28 -5 67 0 111 12 407
54 411 59 15 15 28 476 23 779 -6 352 -14 478 -46 771 -30 264 -39 273 -281
284 -594 25 -1078 30 -1515 15z"/>
<path d="M8482 11188 c-18 -56 -32 -187 -39 -353 -9 -183 -8 -673 2 -880 5
-125 10 -184 31 -425 12 -131 32 -142 269 -144 176 -1 286 9 325 29 l25 13
-29 11 c-20 8 -45 9 -84 1 -93 -17 -418 -7 -439 13 -9 9 -30 253 -43 497 -10
194 -14 983 -5 1188 2 45 2 82 0 82 -2 0 -8 -15 -13 -32z"/>
<path d="M9205 11099 c-77 -4 -241 -10 -365 -14 -124 -4 -229 -9 -233 -12 -5
-3 -6 -82 -3 -177 4 -94 8 -299 11 -456 3 -157 8 -388 11 -515 4 -126 6 -248
5 -270 0 -22 2 -60 5 -84 l6 -44 56 7 c31 3 100 9 152 12 154 10 118 17 -47
10 l-153 -7 0 449 c0 247 -3 584 -7 749 l-6 300 334 4 c496 6 1997 5 2002 -1
5 -6 33 -394 48 -650 5 -91 18 -295 30 -453 11 -159 18 -291 15 -294 -6 -6
-226 -42 -258 -43 -15 0 -18 9 -18 45 0 112 -71 167 -265 205 -33 7 -89 19
-125 27 -37 8 -140 16 -241 19 -196 5 -267 -5 -554 -81 -301 -79 -479 -210
-461 -339 7 -54 7 -52 6 -121 -2 -76 50 -286 91 -368 52 -105 136 -215 297
-388 55 -59 63 -75 137 -284 23 -66 48 -132 54 -148 18 -46 85 -129 158 -197
83 -78 178 -198 205 -260 30 -69 65 -110 94 -110 16 0 23 4 18 11 -3 6 23 41
62 80 l68 69 26 -23 25 -22 -22 25 -23 26 61 59 c67 67 60 67 112 -6 12 -17
11 -12 -4 19 -12 23 -25 45 -30 48 -5 3 15 21 43 40 29 19 65 49 80 67 l27 32
18 -23 c51 -67 61 -73 29 -18 -40 68 -42 54 35 208 l43 88 34 -33 c19 -17 48
-52 63 -76 16 -25 29 -38 29 -29 0 19 -42 82 -82 124 -29 31 -29 33 -14 61 8
16 42 67 76 113 l62 83 22 -39 c12 -21 23 -59 25 -84 3 -64 11 -63 11 1 0 32
-8 72 -20 98 l-20 44 26 40 c29 45 25 61 -9 29 -13 -12 -28 -22 -35 -22 -16 0
-59 78 -71 129 -9 42 -8 47 19 77 l28 33 6 -25 c4 -13 10 -24 15 -24 20 0 30
30 32 91 1 58 -5 85 -30 144 -5 11 -14 40 -21 65 -7 25 -19 53 -28 63 -8 9
-12 17 -8 17 5 0 -26 39 -60 74 -6 7 -28 43 -48 81 -33 61 -37 76 -32 117 2
25 19 71 36 102 l32 56 61 1 c34 0 71 2 82 3 11 2 55 6 99 10 l79 8 -5 161
c-3 89 -23 421 -44 738 l-38 576 -356 7 c-387 8 -1241 5 -1465 -5z m1137
-1334 c54 -8 105 -19 115 -24 10 -5 43 -14 73 -21 113 -26 148 -58 120 -111
-40 -74 -420 -142 -805 -143 -198 0 -518 27 -539 45 -25 23 112 113 218 144
29 9 43 19 47 36 5 16 7 18 8 7 1 -23 11 -22 96 2 145 42 361 74 520 79 28 0
94 -6 147 -14z m248 -350 c0 -3 -13 -29 -29 -57 l-29 -51 -20 44 c-10 24 -18
46 -16 48 8 10 94 24 94 16z m85 -32 c8 -46 36 -100 71 -142 26 -31 26 -33 8
-46 -11 -7 -36 -27 -58 -44 -21 -17 -42 -31 -46 -31 -4 0 -26 27 -48 60 l-40
61 20 47 c24 55 70 132 79 132 4 0 10 -17 14 -37z m-1398 -11 c37 -8 38 -10
49 -64 6 -31 16 -69 22 -86 12 -35 -7 -80 -53 -126 l-26 -26 -10 28 c-27 69
-39 109 -39 128 0 11 -4 24 -9 30 -8 7 -31 116 -31 147 0 4 13 1 30 -8 16 -8
46 -19 67 -23z m1202 -39 c23 -109 23 -116 1 -153 -11 -19 -26 -47 -33 -62 -6
-16 -17 -28 -23 -28 -20 0 -209 228 -209 252 0 8 33 17 90 25 50 7 95 15 100
17 6 3 22 5 36 5 23 1 27 -4 38 -56z m-1054 7 c3 -5 -4 -27 -16 -50 -24 -46
-28 -44 -53 27 l-13 38 38 -3 c22 -2 41 -8 44 -12z m744 -4 c23 -27 -22 -168
-66 -208 -18 -17 -21 -15 -70 41 -28 32 -66 80 -83 107 l-31 49 98 11 c136 16
139 16 152 0z m-574 -51 c13 -60 27 -86 72 -141 18 -23 33 -45 33 -51 0 -11
-64 -72 -106 -101 l-31 -21 -29 37 c-79 100 -132 202 -106 202 9 0 42 90 42
114 0 14 9 17 57 14 l57 -3 11 -50z m250 35 c11 0 16 -4 10 -8 -18 -13 -63
-86 -76 -124 -7 -21 -20 -40 -28 -43 -20 -8 -69 49 -112 128 l-31 59 108 -6
c60 -3 118 -5 129 -6z m78 -69 c9 -27 40 -77 68 -110 l51 -61 -29 -33 c-16
-18 -37 -59 -47 -91 l-18 -58 -31 39 c-17 21 -57 65 -88 98 l-57 60 24 35 c13
19 24 39 24 46 0 6 8 18 19 28 10 9 26 34 36 56 10 22 21 40 24 40 4 0 14 -22
24 -49z m370 -96 c72 -89 78 -100 62 -110 -36 -20 -95 -78 -95 -92 0 -21 -8
-15 -81 62 l-66 70 28 40 c16 23 33 67 40 103 10 50 15 59 23 45 5 -10 45 -63
89 -118z m297 -137 c-18 -28 -36 -62 -41 -76 -9 -23 -11 -22 -58 42 l-48 67
26 28 c15 16 35 47 45 69 l18 41 45 -60 44 -60 -31 -51z m275 28 l37 -89 -23
-44 c-25 -49 -49 -74 -49 -52 0 24 -47 113 -76 144 -15 17 -36 40 -47 52 l-19
22 43 55 44 56 27 -28 c14 -15 43 -67 63 -116z m-1380 -56 c50 -65 50 -61 2
-115 -10 -11 -21 -32 -24 -47 -3 -16 -9 -28 -14 -28 -18 0 -89 91 -133 171
l-25 46 52 56 52 55 22 -39 c12 -22 43 -66 68 -99z m325 -7 c35 -38 74 -85 88
-106 l25 -38 -39 -40 c-36 -38 -116 -99 -128 -99 -3 0 -14 17 -25 38 -10 20
-42 68 -70 105 -47 63 -62 97 -43 97 4 0 33 24 63 54 30 29 57 54 61 55 3 0
34 -29 68 -66z m316 15 c27 -29 60 -65 73 -80 l23 -27 -26 -57 c-14 -31 -28
-67 -30 -79 -2 -12 -22 -59 -43 -105 l-39 -83 -14 44 c-8 24 -31 86 -51 137
-36 88 -37 95 -23 127 8 19 14 45 14 59 0 14 5 28 10 31 6 3 10 13 10 21 0 17
29 64 39 64 4 0 29 -24 57 -52z m579 -9 c59 -66 95 -170 73 -212 -11 -22 -67
-90 -116 -140 l-27 -27 -13 67 c-6 38 -21 95 -32 129 l-20 60 21 50 c25 55 61
114 70 114 4 0 23 -18 44 -41z m-288 14 c45 -58 93 -134 93 -150 0 -25 -61
-163 -90 -203 l-23 -32 -32 83 c-17 46 -44 108 -59 137 -26 52 -27 55 -11 80
16 26 93 102 103 102 3 0 11 -8 19 -17z m-750 -255 c25 -37 43 -71 41 -75 -1
-4 -19 -29 -38 -56 l-34 -47 -21 22 c-11 13 -44 55 -73 93 -60 80 -61 93 -9
156 l32 39 28 -32 c16 -18 49 -63 74 -100z m615 30 c14 -29 35 -85 48 -124
l23 -71 -59 -60 c-33 -33 -72 -81 -88 -106 -17 -26 -33 -47 -37 -47 -8 0 -59
113 -59 133 0 9 5 19 10 22 15 9 76 144 90 196 9 37 40 109 47 109 1 0 12 -24
25 -52z m-316 -25 c9 -21 31 -82 48 -135 29 -88 31 -98 17 -115 -19 -22 -86
-73 -97 -73 -4 0 -16 -8 -26 -17 -23 -21 -31 -13 -53 57 -10 30 -31 84 -47
119 -16 35 -27 65 -26 66 88 63 117 87 138 108 14 15 26 27 27 27 2 0 10 -17
19 -37z m619 -127 c14 -47 13 -50 -10 -81 -14 -17 -25 -36 -25 -40 0 -5 -6
-16 -13 -24 -8 -9 -24 -43 -37 -75 l-24 -59 -12 29 c-7 16 -22 64 -33 107
l-22 78 35 40 c19 22 49 74 68 115 l33 74 13 -57 c7 -32 19 -80 27 -107z m236
77 c6 -21 25 -57 40 -81 16 -24 29 -46 29 -49 0 -4 -18 -28 -39 -53 -22 -26
-57 -75 -79 -109 -36 -57 -40 -60 -54 -44 -24 27 -56 97 -66 141 -9 40 -9 41
55 114 36 40 72 83 80 96 9 12 17 22 18 22 2 0 9 -17 16 -37z m-1045 -169 c15
-38 35 -93 46 -122 18 -47 18 -55 5 -70 -37 -44 -63 -142 -37 -142 5 0 19 19
31 43 44 86 46 86 100 -1 27 -42 52 -81 56 -87 45 -54 45 -56 3 -95 -22 -21
-40 -42 -40 -47 0 -6 18 7 40 29 23 21 45 38 50 38 5 0 17 -12 27 -26 10 -14
33 -39 51 -56 35 -35 39 -49 17 -68 -8 -7 -15 -20 -15 -29 0 -10 -6 -25 -13
-35 -12 -16 -19 -11 -88 56 -41 40 -97 93 -125 118 -76 69 -90 98 -181 375 -9
28 -23 61 -30 75 -7 14 -13 32 -13 40 0 20 72 92 82 82 5 -5 20 -40 34 -78z
m639 -129 l38 -116 -24 -26 c-32 -35 -109 -107 -118 -111 -4 -1 -34 35 -65 81
l-58 84 21 42 c23 44 136 161 156 161 7 0 29 -52 50 -115z m224 31 c46 -80 64
-106 72 -106 5 0 -16 -50 -47 -112 l-56 -112 -19 25 c-10 13 -34 53 -53 89
-35 67 -36 90 -2 130 7 8 21 38 31 65 10 28 25 61 34 75 l16 24 3 -23 c2 -13
12 -38 21 -55z m-529 -51 c9 -16 22 -39 29 -51 12 -19 10 -29 -22 -95 -20 -41
-44 -84 -54 -97 l-19 -23 -36 53 c-20 29 -51 80 -69 113 l-31 59 23 16 c13 8
48 33 79 56 61 45 60 46 100 -31z m136 -208 c19 -20 34 -41 34 -46 0 -9 -43
-62 -101 -124 l-25 -27 -46 61 -47 61 34 46 c18 26 43 66 55 90 l23 43 20 -33
c11 -18 35 -50 53 -71z m254 38 c0 -7 4 -15 9 -17 13 -4 81 -108 81 -123 0 -6
-11 -24 -24 -38 -13 -14 -26 -30 -27 -34 -9 -20 -80 -66 -89 -57 -5 5 -32 41
-59 79 l-50 70 72 72 c68 68 87 79 87 48z m-130 -196 c25 -34 50 -68 57 -77
10 -14 4 -25 -37 -71 -28 -29 -50 -57 -50 -62 0 -18 -17 -8 -61 39 -91 96 -89
81 -23 161 32 39 60 71 63 71 4 0 26 -28 51 -61z m-126 -162 c36 -35 66 -68
66 -73 0 -5 -29 -40 -64 -79 l-64 -70 -22 50 c-12 27 -28 64 -37 82 -14 30
-13 34 19 92 18 33 33 61 34 61 1 0 31 -28 68 -63z"/>
<path d="M14132 10673 c-1 -6 -8 -18 -15 -25 -7 -7 -46 -56 -87 -108 -41 -52
-97 -123 -125 -156 -75 -92 -100 -125 -166 -223 l-61 -90 -26 16 c-15 9 -34
22 -42 28 -16 13 -121 68 -155 81 -26 10 -120 31 -220 49 -71 13 -84 13 -112
-1 -18 -8 -37 -23 -43 -34 -16 -30 -12 -31 15 -5 34 35 86 32 212 -11 214 -73
329 -142 410 -247 39 -50 41 -55 25 -70 -15 -16 -19 -14 -57 22 -80 78 -321
221 -372 221 -10 0 -40 7 -68 16 -63 20 -120 27 -160 19 -26 -5 -34 -15 -58
-73 -16 -37 -33 -74 -38 -82 -5 -8 -13 -25 -19 -37 -5 -12 -21 -25 -35 -29
-14 -3 -25 -10 -23 -14 7 -17 141 -128 218 -180 164 -111 289 -162 423 -176
54 -5 67 -4 67 8 0 7 14 31 32 52 49 59 162 277 149 286 -4 3 -19 27 -35 53
l-27 48 28 33 c71 84 252 327 296 397 10 16 32 43 48 60 18 19 29 42 29 60 0
16 -2 29 -5 29 -6 0 -131 -166 -212 -282 -34 -48 -77 -107 -96 -131 -19 -23
-50 -68 -69 -100 -33 -54 -36 -56 -51 -39 -15 17 -14 21 16 57 17 21 66 82
107 135 41 54 128 163 193 244 105 130 118 150 114 179 -2 17 -5 27 -5 20z
m-899 -574 c128 -44 250 -107 343 -177 110 -84 129 -105 114 -131 -7 -13 -16
-18 -23 -14 -7 5 -45 30 -85 56 -129 86 -444 227 -505 227 -32 0 -35 18 -7 48
28 29 55 28 163 -9z m-3 -128 c194 -77 241 -98 295 -127 28 -14 67 -35 87 -46
58 -31 61 -38 36 -99 -12 -30 -23 -56 -25 -58 -2 -3 -22 14 -46 36 -77 75
-200 155 -346 225 -79 38 -160 72 -180 75 l-36 5 25 -21 c14 -11 68 -39 120
-62 105 -45 267 -134 346 -189 59 -41 114 -86 114 -94 0 -12 -94 -6 -153 10
-116 30 -338 156 -451 256 l-48 43 37 68 37 67 32 -19 c17 -11 87 -42 156 -70z"/>
<path d="M14123 10220 c-13 -38 -40 -111 -97 -258 -20 -51 -36 -100 -36 -109
0 -37 39 22 73 112 59 154 79 220 75 256 l-4 34 -11 -35z"/>
<path d="M14108 9979 c-29 -89 -33 -109 -20 -109 17 1 53 108 50 151 l-3 43
-27 -85z"/>
<path d="M0 9957 l0 -34 513 -8 c281 -4 535 -8 562 -9 183 -8 354 -18 378 -22
46 -9 50 -24 77 -299 33 -328 40 -458 39 -780 -1 -187 -4 -403 -8 -480 l-6
-139 -164 -24 c-145 -20 -169 -26 -207 -53 -24 -16 -45 -33 -48 -37 -3 -5 28
-5 67 0 111 12 407 54 411 59 3 2 10 96 17 209 28 480 -17 1405 -75 1544 -24
57 -72 73 -236 81 -354 16 -713 25 -1002 25 l-318 0 0 -33z"/>
<path d="M12790 9833 c-30 -20 -57 -38 -60 -42 -3 -3 -23 -18 -45 -33 -102
-69 -229 -233 -307 -396 -43 -88 -51 -114 -55 -181 -5 -69 -3 -85 20 -134 46
-101 170 -211 357 -318 170 -98 214 -114 305 -113 86 0 128 15 171 61 21 23
24 23 46 9 21 -13 28 -13 73 2 38 13 59 29 90 68 47 59 76 109 86 144 4 14 28
83 53 153 25 71 46 139 46 153 0 13 4 32 9 42 17 31 51 235 37 221 -2 -2 -18
-65 -35 -139 -55 -242 -149 -476 -223 -556 -36 -39 -103 -73 -117 -58 -3 2 1
30 8 62 7 31 17 78 21 105 5 26 13 62 19 80 32 101 39 127 36 127 -13 0 -55
-86 -84 -170 -60 -170 -112 -242 -186 -256 -110 -20 -330 81 -528 244 -106 88
-157 165 -157 240 0 167 174 438 425 660 78 70 77 78 -5 25z"/>
<path d="M14060 9840 c-51 -10 -110 -37 -110 -50 0 -6 -5 -8 -12 -4 -7 4 -8 3
-4 -4 4 -7 2 -12 -3 -12 -6 0 -10 -15 -10 -32 1 -22 3 -26 6 -12 9 49 65 73
211 94 1 0 2 7 2 15 0 16 -21 18 -80 5z"/>
<path d="M0 9766 l0 -24 659 -3 c363 -2 661 -6 664 -9 2 -3 14 -147 26 -320
11 -173 33 -485 47 -693 14 -208 23 -381 20 -384 -6 -6 -225 -42 -258 -43 -15
0 -18 9 -18 45 0 56 -18 92 -64 133 -38 33 -86 50 -241 81 -169 35 -232 42
-376 40 -132 -1 -229 -15 -412 -59 l-47 -12 0 -74 0 -74 26 10 c58 22 277 60
410 71 118 9 157 9 247 -5 58 -8 114 -19 124 -24 10 -5 41 -15 68 -21 91 -21
135 -43 135 -69 0 -71 -68 -102 -320 -147 -156 -27 -293 -38 -492 -39 l-198
-1 0 -67 0 -68 38 -1 c20 0 48 -2 62 -3 14 -1 45 -3 68 -4 l44 -2 -30 -37
c-16 -21 -37 -59 -48 -85 -30 -75 -44 -73 -111 17 l-22 30 -1 -39 c0 -27 8
-50 25 -72 31 -40 31 -45 0 -74 -18 -17 -25 -34 -25 -61 l0 -37 48 45 47 44
76 -81 c42 -45 82 -92 90 -106 12 -23 10 -27 -27 -65 -21 -23 -59 -55 -83 -72
-42 -28 -45 -29 -55 -13 -6 10 -29 46 -51 80 l-40 61 -3 -38 c-3 -29 4 -50 27
-86 17 -26 31 -52 31 -57 -1 -5 -14 -25 -30 -44 -29 -33 -30 -39 -30 -128 0
-75 6 -112 26 -176 58 -178 98 -244 213 -348 76 -68 177 -196 203 -257 31 -71
65 -111 94 -111 15 0 23 4 19 11 -4 5 24 41 61 79 l68 70 26 -23 25 -22 -22
25 -23 26 58 57 c32 31 61 57 64 57 4 0 19 -17 33 -37 14 -21 25 -33 25 -27 0
6 -11 27 -24 46 l-23 35 35 19 c19 10 55 39 79 63 l44 44 17 -23 c49 -65 60
-71 28 -16 l-34 58 32 72 c18 39 44 93 58 119 l24 49 53 -58 c29 -32 57 -67
61 -78 5 -12 9 -15 9 -8 1 22 -29 72 -71 118 l-40 43 32 53 c18 29 53 79 78
111 l45 59 21 -39 c12 -21 23 -58 25 -83 3 -64 11 -63 11 1 0 32 -8 72 -20 98
l-20 44 26 40 c30 46 27 55 -9 27 -14 -11 -30 -20 -36 -20 -16 0 -60 83 -69
132 -8 41 -6 47 19 76 l29 32 6 -25 c14 -58 43 -16 45 66 1 71 0 79 -23 129
-8 19 -21 55 -28 80 -6 25 -19 53 -28 63 -8 9 -12 17 -9 17 7 0 -21 36 -55 71
-9 10 -33 48 -52 85 -29 55 -35 75 -32 111 3 37 44 134 65 154 3 4 53 9 111
13 58 3 129 9 159 12 l54 7 -6 186 c-4 102 -11 251 -17 331 -15 212 -50 728
-57 851 l-6 106 -321 7 c-177 3 -486 6 -688 6 l-368 0 0 -24z m940 -1671 c0
-3 -13 -28 -28 -55 l-28 -49 -22 44 -22 45 28 6 c15 3 32 7 37 9 17 6 35 5 35
0z m85 -32 c8 -46 36 -100 71 -142 26 -31 26 -33 8 -46 -11 -7 -36 -27 -58
-44 -21 -17 -42 -31 -46 -31 -4 0 -26 27 -48 60 l-40 61 20 47 c24 55 70 132
79 132 4 0 10 -17 14 -37z m-196 -50 c23 -107 23 -117 2 -153 -11 -19 -26 -47
-33 -62 -22 -49 -21 -49 -173 137 -36 44 -64 84 -62 90 2 5 44 16 93 22 49 7
94 15 99 17 6 3 22 5 36 5 23 1 27 -4 38 -56z m-310 -65 c-13 -61 -39 -116
-66 -140 -18 -17 -21 -15 -79 53 -32 38 -69 87 -82 108 l-23 39 92 7 c50 4
103 11 118 14 41 12 54 -14 40 -81z m-246 -17 c9 -27 40 -77 68 -110 l50 -61
-29 -37 c-26 -33 -40 -66 -59 -132 -2 -10 -14 -2 -36 25 -17 21 -56 65 -86 97
l-54 57 27 55 c16 30 34 59 40 65 7 5 21 28 31 50 10 22 21 40 24 40 4 0 14
-22 24 -49z m370 -96 c72 -89 78 -100 62 -110 -36 -20 -95 -78 -95 -92 0 -21
-8 -15 -81 62 l-66 70 28 40 c16 23 33 67 40 103 10 50 15 59 23 45 5 -10 45
-63 89 -118z m290 -32 l37 -51 -41 -76 -41 -76 -48 65 -47 66 26 28 c15 16 35
47 46 70 10 23 21 38 25 34 4 -4 23 -31 43 -60z m267 -38 c51 -112 54 -128 30
-171 -12 -22 -28 -46 -36 -54 -12 -12 -14 -12 -14 0 0 25 -46 113 -76 145 -15
17 -36 40 -47 52 l-19 22 43 55 43 55 24 -22 c13 -12 37 -49 52 -82z m-701
-111 c77 -83 77 -81 40 -158 -11 -22 -19 -47 -20 -55 0 -9 -19 -56 -43 -105
l-42 -89 -14 44 c-8 24 -31 86 -52 138 -36 89 -37 95 -23 128 8 20 15 46 15
59 0 12 5 26 10 29 6 3 10 13 10 21 0 18 29 64 40 64 4 0 40 -34 79 -76z m554
17 c63 -70 99 -170 76 -214 -19 -35 -127 -157 -140 -157 -4 0 -12 30 -18 68
-7 37 -21 91 -32 120 l-19 53 22 52 c24 57 59 117 69 117 4 0 23 -18 42 -39z
m-245 -44 c46 -62 53 -77 48 -106 -6 -38 -56 -149 -87 -193 l-22 -30 -32 83
c-17 46 -44 108 -59 137 -26 52 -27 55 -11 80 17 28 94 102 104 102 3 0 30
-33 59 -73z m-175 -169 c13 -29 34 -85 47 -124 l23 -71 -59 -60 c-33 -33 -72
-81 -88 -106 -17 -26 -33 -47 -37 -47 -3 0 -19 27 -34 61 l-27 60 50 102 c27
56 52 118 56 137 5 30 36 100 43 100 1 0 13 -24 26 -52z m-317 -25 c9 -21 31
-81 48 -134 31 -89 32 -98 17 -116 -18 -22 -86 -73 -97 -73 -4 0 -16 -8 -26
-17 -23 -21 -31 -13 -53 57 -10 30 -31 84 -47 119 -16 35 -27 65 -26 66 88 63
117 87 138 108 14 15 26 27 27 27 2 0 10 -17 19 -37z m603 -68 c1 -11 8 -39
16 -63 15 -42 14 -44 -10 -76 -14 -18 -25 -37 -25 -41 0 -5 -6 -16 -13 -24 -8
-9 -24 -43 -37 -75 l-24 -59 -12 29 c-7 16 -22 64 -34 107 l-21 78 32 37 c18
20 48 70 68 111 l35 76 12 -40 c7 -22 13 -49 13 -60z m252 18 c6 -21 25 -57
40 -81 16 -24 29 -46 29 -49 0 -3 -17 -26 -39 -52 -21 -25 -56 -74 -78 -109
-37 -59 -41 -61 -56 -45 -26 29 -67 126 -67 159 0 24 14 47 61 100 34 38 68
79 76 92 9 12 17 22 18 22 2 0 9 -17 16 -37z m-1045 -169 c15 -38 35 -93 46
-122 18 -47 18 -55 5 -70 -37 -44 -63 -142 -37 -142 5 0 21 22 34 48 23 46 56
84 56 66 0 -5 31 -56 69 -113 l69 -105 -39 -37 c-21 -20 -39 -43 -39 -50 0 -8
7 -4 15 8 9 12 29 32 46 44 l30 21 25 -23 c13 -12 24 -26 24 -31 0 -5 14 -21
30 -35 33 -28 37 -44 15 -63 -8 -7 -15 -20 -15 -29 0 -10 -6 -25 -13 -35 -12
-16 -19 -11 -88 56 -41 40 -98 94 -127 120 -29 25 -52 49 -52 53 0 4 -9 19
-20 35 -17 24 -53 119 -107 285 -9 28 -23 61 -30 75 -7 14 -13 32 -13 40 0 20
72 92 82 82 5 -5 20 -40 34 -78z m639 -129 l38 -116 -24 -26 c-45 -49 -113
-113 -119 -113 -4 0 -33 38 -65 84 l-58 85 28 47 c29 49 132 154 151 154 7 0
29 -52 49 -115z m224 31 c46 -79 64 -106 72 -106 7 0 -33 -90 -85 -189 l-18
-34 -19 24 c-10 13 -34 53 -53 89 -36 68 -36 80 4 140 5 8 24 47 41 85 26 57
33 65 37 46 2 -13 12 -38 21 -55z m-529 -51 c9 -16 22 -40 30 -51 12 -20 9
-30 -28 -107 -59 -119 -61 -120 -110 -45 -46 74 -92 152 -92 160 0 3 29 25 64
48 36 23 70 48 77 56 10 12 14 11 28 -8 9 -13 23 -36 31 -53z m119 -184 c28
-35 51 -69 51 -75 0 -6 -29 -42 -63 -79 l-62 -68 -47 61 -46 60 49 73 c27 39
49 78 49 85 0 22 15 10 69 -57z m271 13 c0 -8 4 -14 9 -14 10 0 81 -108 81
-125 0 -6 -11 -24 -24 -38 -13 -14 -26 -30 -27 -34 -9 -20 -80 -66 -89 -57 -5
5 -32 41 -59 79 l-50 70 72 72 c68 69 87 79 87 47z m-154 -161 c11 -16 36 -51
56 -78 l36 -51 -49 -53 c-27 -29 -49 -57 -49 -62 0 -18 -17 -8 -61 39 -92 97
-90 82 -23 161 33 39 62 71 65 71 3 0 14 -12 25 -27z m-96 -201 l68 -67 -68
-75 -69 -75 -16 40 c-9 22 -25 58 -36 80 l-20 40 33 62 c18 35 34 63 36 63 2
0 34 -30 72 -68z"/>
<path d="M14052 9729 c-56 -9 -101 -29 -119 -51 -6 -8 -10 -57 -8 -123 1 -98
0 -112 -18 -132 -11 -13 -19 -25 -16 -26 4 -4 176 -52 222 -61 23 -6 27 -3 27
17 0 21 -8 25 -77 41 -121 27 -123 28 -123 79 0 25 3 59 6 76 6 30 9 32 48 29
22 -1 65 -1 94 0 43 2 52 5 52 20 0 16 -7 17 -85 10 -47 -4 -90 -10 -95 -13
-15 -9 -12 48 3 68 8 12 39 21 95 29 68 10 82 15 82 30 0 20 -7 20 -88 7z"/>
<path d="M9003 9563 c15 -2 37 -2 50 0 12 2 0 4 -28 4 -27 0 -38 -2 -22 -4z"/>
<path d="M13617 9515 c-4 -8 -2 -17 2 -20 5 -2 11 4 14 15 6 23 -8 27 -16 5z"/>
<path d="M13988 9513 c-16 -2 -28 -9 -28 -14 0 -5 12 -10 28 -11 15 0 41 -2
57 -3 49 -4 95 7 95 21 0 11 -16 14 -62 13 -35 -1 -75 -4 -90 -6z"/>
<path d="M13823 9282 c-115 -171 -183 -401 -183 -616 0 -182 53 -286 177 -349
47 -25 190 -64 261 -72 62 -7 64 -7 60 16 -3 20 -12 25 -70 35 -267 49 -355
122 -374 309 -15 141 39 411 121 604 26 62 46 114 43 116 -2 2 -18 -17 -35
-43z"/>
<path d="M3301 9194 c-68 -86 -17 -183 135 -254 107 -50 306 -150 339 -170 17
-10 68 -35 114 -55 78 -34 87 -36 123 -26 l39 12 777 -392 c427 -216 785 -397
794 -403 25 -15 48 8 28 28 -22 22 -297 164 -960 498 -327 165 -596 303 -597
307 -2 3 1 12 6 20 9 13 26 6 176 -72 11 -6 238 -121 505 -256 541 -273 891
-443 898 -436 14 14 -53 51 -392 221 -863 433 -1159 587 -1238 643 -219 157
-621 361 -711 361 -9 0 -25 -12 -36 -26z"/>
<path d="M6230 8294 c-181 -28 -262 -52 -359 -109 -83 -49 -171 -136 -171
-171 l0 -27 23 20 c12 11 47 43 77 71 63 58 184 122 280 147 84 22 365 32 483
16 332 -44 620 -222 795 -490 73 -112 116 -217 137 -336 43 -247 -8 -419 -174
-586 -143 -144 -266 -191 -506 -192 -340 -2 -665 121 -948 357 -136 114 -242
278 -273 424 -16 79 -18 241 -3 310 5 27 9 74 7 103 -3 54 -3 54 -16 24 -48
-110 -64 -285 -38 -415 33 -160 89 -268 205 -392 190 -203 460 -354 766 -426
99 -24 129 -27 300 -26 180 0 194 1 271 27 147 49 301 171 379 302 75 126 109
312 86 465 -17 108 -71 258 -127 352 -59 98 -200 250 -307 329 -146 109 -326
184 -512 213 -82 13 -315 19 -375 10z"/>
<path d="M6215 8175 c-174 -27 -291 -71 -392 -146 -39 -29 -53 -46 -53 -64 0
-30 7 -31 36 -4 l22 21 20 -54 20 -53 -27 -6 c-52 -13 -73 -10 -78 11 -3 11
-9 20 -14 20 -11 0 -6 -53 6 -65 16 -14 48 -112 41 -123 -3 -6 -22 -13 -42
-17 -20 -3 -34 -8 -31 -11 2 -3 23 -1 45 4 l40 9 16 -41 c25 -69 26 -68 -44
-87 -60 -17 -53 -18 41 -3 36 6 37 5 52 -40 l16 -46 -37 -9 c-92 -23 -117 -31
-86 -26 17 2 54 7 81 11 l50 6 16 -46 c12 -35 13 -48 4 -51 -63 -19 -160 -36
-167 -29 -5 5 -19 38 -31 74 -20 56 -23 90 -27 250 -3 159 -6 181 -17 160 -25
-48 -38 -149 -32 -243 23 -342 275 -634 685 -792 422 -163 755 -130 983 96
112 111 156 232 146 398 -14 231 -121 449 -307 624 -245 231 -580 328 -935
272z m198 -40 c7 -18 2 -21 -50 -30 -35 -5 -43 -4 -52 14 -10 18 -8 20 21 24
65 8 76 7 81 -8z m-120 -15 c6 -25 4 -26 -55 -35 -31 -5 -48 -4 -48 3 0 6 -3
17 -6 25 -4 12 3 17 28 20 69 8 76 7 81 -13z m197 9 c-28 -5 -48 -5 -54 1 -7
7 9 10 45 9 l54 -1 -45 -9z m-320 -28 c14 -28 15 -28 -36 -36 -38 -5 -48 -3
-61 12 -14 17 -14 17 -10 -3 4 -19 -2 -23 -44 -31 -38 -8 -49 -7 -53 3 -6 17
11 26 89 49 33 9 65 19 70 20 23 8 35 4 45 -14z m451 -27 c12 -25 19 -47 17
-49 -1 -1 -33 -9 -69 -17 l-66 -15 -24 45 c-13 26 -24 51 -24 57 0 11 48 22
108 24 36 1 39 -1 58 -45z m98 23 c36 -12 66 -27 68 -33 2 -7 -15 -14 -39 -18
-24 -4 -53 -9 -65 -12 -18 -5 -25 2 -42 35 -12 22 -21 43 -21 46 0 10 36 4 99
-18z m-263 -48 c26 -53 23 -68 -16 -69 -8 0 -25 -3 -37 -6 -18 -5 -26 2 -48
46 -14 29 -24 54 -21 57 5 5 61 20 83 22 7 1 24 -22 39 -50z m-122 -21 c13
-29 21 -56 17 -60 -3 -4 -25 -10 -48 -14 l-41 -6 -27 52 c-14 29 -25 54 -23
56 4 3 71 20 91 23 4 1 18 -23 31 -51z m-120 -25 c15 -31 25 -57 23 -59 -1 -2
-21 -7 -43 -12 l-41 -9 -27 55 c-15 30 -25 57 -22 59 4 5 54 18 78 22 3 1 18
-24 32 -56z m-264 38 c0 -13 -9 -17 -50 -26 l-35 -6 30 20 c32 22 55 27 55 12z
m971 -28 c66 -36 84 -52 57 -53 -7 -1 -32 -5 -55 -9 l-43 -8 -30 48 c-16 27
-30 51 -30 54 0 14 40 1 101 -32z m-794 -89 c-2 -2 -25 -8 -51 -13 l-48 -9
-24 55 c-14 31 -23 57 -21 60 2 2 24 7 48 11 l44 8 28 -54 c16 -30 27 -56 24
-58z m704 67 l26 -49 -55 -11 c-82 -16 -86 -15 -110 34 l-21 44 37 10 c49 13
75 18 87 20 6 0 22 -21 36 -48z m-845 -36 c25 -61 27 -58 -57 -70 l-46 -6 -21
57 c-12 30 -22 57 -22 59 0 2 17 6 38 8 90 9 85 11 108 -48z m689 5 l25 -49
-38 -10 c-101 -28 -98 -28 -126 27 l-25 49 67 16 c37 8 68 15 69 16 2 1 14
-21 28 -49z m-156 -36 c12 -26 19 -50 14 -55 -4 -4 -28 -10 -53 -14 l-45 -7
-23 46 c-12 26 -22 49 -22 51 0 6 60 23 86 24 14 1 26 -12 43 -45z m-109 -71
c0 -11 -9 -15 -62 -27 -25 -6 -30 -2 -53 45 -15 28 -24 53 -22 55 2 3 24 8 48
12 44 8 44 8 66 -32 12 -23 22 -46 23 -53z m628 84 c6 -6 13 -24 17 -38 6 -25
4 -26 -51 -37 -76 -16 -71 -17 -93 27 l-20 39 47 10 c67 14 88 14 100 -1z
m-763 -66 c14 -28 21 -52 17 -54 -4 -2 -24 -7 -45 -11 l-38 -7 -23 53 c-26 59
-22 66 36 67 23 1 32 -7 53 -48z m615 17 c11 -18 20 -36 20 -40 0 -7 -46 -22
-107 -34 -29 -6 -33 -3 -53 36 -12 23 -20 44 -18 46 7 6 82 22 111 23 21 1 32
-7 47 -31z m-722 -39 c13 -28 22 -52 20 -53 -1 -2 -27 -8 -56 -13 l-53 -10
-15 35 c-29 70 -29 80 3 85 74 11 77 10 101 -44z m562 0 c12 -23 20 -42 18
-44 -8 -8 -122 -33 -130 -29 -5 3 -17 23 -28 44 l-20 39 42 11 c24 6 48 13 53
15 30 11 46 2 65 -36z m-694 -16 c11 -27 20 -51 22 -54 3 -7 -77 -29 -107 -29
-15 0 -24 13 -37 53 -9 28 -17 54 -16 57 1 6 56 17 93 19 22 1 29 -6 45 -46z
m1133 -14 c24 -27 42 -51 40 -53 -2 -2 -16 -6 -30 -9 -23 -6 -28 -1 -52 49
-31 62 -31 64 -14 63 6 -1 32 -23 56 -50z m-1273 -20 c12 -30 21 -55 19 -57
-2 -2 -23 -9 -48 -17 l-46 -14 -20 62 c-12 33 -21 64 -21 68 0 7 63 17 85 14
5 -1 19 -26 31 -56z m1209 11 c14 -28 23 -55 20 -59 -2 -5 -26 -12 -51 -16
-26 -3 -52 -8 -58 -11 -9 -3 -66 84 -66 101 0 6 90 33 112 34 11 1 27 -17 43
-49z m-532 5 c9 -20 17 -40 17 -45 0 -7 -100 -34 -105 -28 -8 10 -35 69 -35
77 0 9 57 28 91 30 8 1 23 -15 32 -34z m-130 -30 c23 -47 22 -52 -10 -59 -16
-4 -36 -9 -45 -12 -12 -4 -23 7 -38 37 -22 43 -20 54 15 62 49 12 61 7 78 -28z
m511 -12 c15 -25 23 -50 19 -53 -10 -9 -132 -34 -136 -29 -2 2 -16 25 -30 51
l-27 47 42 11 c24 6 48 13 53 15 36 13 54 3 79 -42z m-626 -18 c24 -49 23 -50
-30 -60 -36 -7 -38 -6 -53 31 -8 22 -16 43 -18 49 -2 8 30 20 69 24 5 0 20
-19 32 -44z m-115 -2 c32 -63 31 -71 -10 -82 -65 -18 -78 -15 -92 27 -8 20
-16 42 -18 49 -3 7 16 15 49 21 29 5 54 10 55 11 1 0 9 -11 16 -26z m575 -19
c13 -26 21 -48 19 -50 -1 -2 -31 -10 -65 -18 l-63 -14 -25 50 c-14 27 -24 51
-22 53 5 5 91 23 114 24 14 1 26 -12 42 -45z m-697 -36 l18 -47 -37 -10 c-93
-23 -85 -25 -109 34 l-21 54 42 10 c73 17 86 11 107 -41z m541 2 l28 -49 -38
-11 c-71 -19 -88 -14 -106 31 -9 23 -14 44 -11 48 5 5 55 20 95 30 3 0 17 -22
32 -49z m633 -6 c20 -30 35 -57 33 -58 -1 -2 -19 -6 -39 -10 -35 -6 -36 -6
-67 53 -34 65 -35 63 25 70 6 0 28 -24 48 -55z m-92 -19 c14 -30 23 -56 19
-58 -4 -3 -33 -8 -64 -11 l-57 -7 -26 51 c-15 29 -25 53 -23 55 6 5 83 23 103
24 16 1 28 -13 48 -54z m-1229 2 c9 -23 16 -47 16 -53 0 -6 -20 -15 -45 -21
-46 -10 -46 -10 -59 22 -29 68 -29 72 1 83 55 20 69 15 87 -31z m554 -11 c24
-50 26 -47 -46 -61 -31 -6 -33 -5 -52 40 -24 57 -25 53 3 58 63 12 72 9 95
-37z m524 -19 l26 -54 -63 -11 c-34 -7 -69 -12 -77 -12 -14 0 -63 88 -54 97 5
6 104 30 126 32 10 1 26 -20 42 -52z m-644 -3 c13 -26 21 -48 19 -51 -3 -2
-24 -5 -47 -6 -41 -2 -43 -1 -61 40 l-18 43 32 9 c50 14 52 14 75 -35z m-108
-20 c11 -25 20 -47 20 -49 0 -6 -73 -25 -96 -25 -13 0 -26 12 -37 35 -23 49
-22 53 21 61 20 4 44 10 52 15 8 5 16 9 18 9 1 0 12 -21 22 -46z m573 9 c34
-66 33 -69 -29 -82 -32 -6 -61 -11 -65 -11 -7 0 -62 91 -57 96 5 4 93 22 115
23 15 1 27 -8 36 -26z m-708 -43 c10 -22 15 -43 12 -46 -3 -4 -31 -12 -62 -19
-55 -13 -56 -13 -66 11 -5 13 -13 35 -18 48 -9 23 -7 25 37 34 75 16 78 15 97
-28z m559 -9 l25 -49 -42 -6 c-23 -4 -51 -9 -62 -12 -16 -4 -25 4 -43 42 -13
25 -22 48 -20 49 4 3 87 22 105 24 7 1 24 -21 37 -48z m642 -17 c14 -31 23
-58 21 -61 -14 -13 -67 -20 -74 -10 -9 14 -53 107 -53 112 0 2 15 6 33 8 17 2
36 5 40 5 4 1 19 -23 33 -54z m-1345 -9 l16 -45 -36 -10 c-59 -16 -67 -13 -80
31 -14 46 -14 44 19 58 50 20 64 14 81 -34z m560 -1 c12 -25 19 -47 17 -50 -3
-2 -26 -5 -53 -6 -47 -3 -48 -3 -66 39 l-18 43 32 9 c59 17 67 14 88 -35z
m685 -10 c14 -31 22 -59 19 -63 -4 -3 -30 -10 -60 -16 l-53 -11 -31 63 -30 62
37 6 c20 4 42 8 47 10 35 12 47 3 71 -51z m-806 -10 c11 -26 20 -48 20 -49 0
-2 -18 -6 -40 -10 -22 -4 -43 -7 -46 -8 -4 -1 -15 19 -25 45 l-18 47 42 9 c23
6 43 10 44 11 1 1 11 -20 23 -45z m660 -14 c16 -33 30 -62 30 -64 0 -6 -56
-21 -111 -30 -35 -6 -36 -6 -68 55 -18 34 -30 64 -27 67 3 3 36 11 73 18 38 6
69 12 70 13 2 0 16 -26 33 -59z m-771 -12 c10 -24 17 -44 16 -46 -2 -2 -29 -9
-60 -17 -56 -13 -56 -12 -66 11 -30 79 -32 71 19 82 72 15 72 15 91 -30z m631
-89 c0 -10 -122 -31 -130 -22 -4 4 -22 34 -40 65 l-31 57 23 6 c13 3 43 9 68
13 l45 8 32 -60 c18 -34 32 -64 33 -67z m-768 56 l17 -45 -27 -6 c-15 -3 -42
-10 -61 -15 -41 -10 -41 -10 -62 46 l-16 43 46 10 c82 17 85 16 103 -33z m580
-17 c18 -35 34 -66 36 -69 2 -4 -27 -12 -64 -18 -36 -7 -67 -11 -68 -9 -1 2
-14 28 -29 59 -15 31 -27 60 -27 66 0 5 26 14 58 20 31 6 58 11 59 12 2 0 17
-27 35 -61z m-730 -13 c9 -24 14 -46 10 -49 -4 -2 -28 -7 -53 -11 l-45 -7 -14
41 c-14 44 -10 56 25 64 52 12 60 8 77 -38z m583 -24 l34 -69 -47 -7 c-26 -3
-51 -5 -57 -4 -11 3 -66 121 -59 128 3 3 51 14 86 20 4 0 23 -30 43 -68z m764
27 c5 -18 12 -48 16 -65 6 -31 5 -33 -22 -33 -26 0 -32 6 -53 56 -25 61 -20
74 27 74 16 0 24 -9 32 -32z m-887 -51 c29 -68 28 -70 -35 -81 -37 -7 -38 -6
-57 39 -41 95 -38 101 35 104 28 1 32 -4 57 -62z m810 6 l25 -58 -21 -6 c-11
-3 -38 -9 -58 -13 -37 -7 -38 -6 -63 43 -14 28 -25 55 -25 60 0 5 17 13 38 19
72 19 77 17 104 -45z m-929 -25 c13 -35 21 -66 18 -70 -3 -4 -31 -10 -61 -14
l-55 -6 -17 44 c-33 86 -33 86 9 93 21 4 43 8 48 10 26 9 35 1 58 -57z m790
-4 c16 -31 27 -57 25 -59 -4 -3 -120 -25 -133 -25 -12 0 -65 88 -65 107 0 6
24 15 53 20 91 18 90 18 120 -43z m-930 -26 c29 -72 30 -70 -59 -83 l-52 -7
-21 57 c-12 30 -21 60 -21 64 0 8 71 27 111 30 12 1 25 -19 42 -61z m760 -3
c15 -31 27 -57 27 -59 0 -5 -94 -26 -115 -26 -13 0 -78 101 -70 109 3 3 82 22
125 30 3 1 18 -24 33 -54z m-913 -25 c13 -34 21 -62 19 -64 -2 -2 -24 -8 -47
-14 l-44 -10 -24 55 c-28 62 -26 79 8 86 61 12 65 10 88 -53z m759 -4 c17 -29
31 -56 31 -59 0 -6 -92 -27 -118 -27 -12 0 -27 20 -45 55 l-27 55 23 4 c27 6
101 24 104 25 1 1 15 -23 32 -53z m-879 -21 c13 -31 20 -58 17 -62 -4 -3 -35
-11 -69 -19 l-63 -12 65 5 c36 3 69 6 73 7 5 0 17 -21 28 -49 32 -83 32 -83 7
-88 -17 -3 -16 -4 4 -2 24 1 30 -5 49 -52 27 -67 37 -63 11 5 l-19 50 36 6
c64 10 66 9 94 -59 15 -36 27 -68 27 -70 0 -3 -10 -5 -22 -6 -13 0 -32 -4 -43
-9 -13 -6 -4 -7 26 -3 44 5 47 4 58 -23 10 -27 11 -27 6 -3 -4 24 -1 27 46 37
88 21 97 18 120 -35 11 -26 21 -56 22 -67 3 -30 13 -34 60 -25 72 14 84 11 97
-21 7 -17 17 -33 22 -36 5 -4 3 8 -6 24 -9 17 -16 35 -16 40 0 5 26 13 58 16
31 4 64 9 73 12 10 3 21 -8 33 -32 9 -20 15 -38 13 -40 -2 -2 -21 -8 -43 -14
l-39 -10 48 4 c36 3 50 0 58 -13 10 -15 10 -14 5 1 -4 12 3 18 27 23 18 3 55
11 84 17 41 9 56 8 68 -2 13 -11 15 -10 10 1 -4 11 12 19 61 32 67 17 84 16
84 -7 0 -31 -148 -75 -282 -83 -163 -9 -302 16 -498 92 -169 66 -401 209 -384
237 4 6 2 8 -4 4 -21 -13 -218 232 -200 249 6 6 127 33 154 34 17 1 26 -11 44
-54z m730 -14 l30 -60 -56 -11 c-31 -7 -57 -10 -59 -8 -9 10 -56 111 -53 113
2 2 26 8 53 13 28 5 51 10 52 11 2 0 16 -26 33 -58z m717 -16 l3 -70 -29 65
c-30 65 -28 84 9 77 11 -2 16 -19 17 -72z m-42 -7 l33 -73 -46 -12 c-26 -7
-52 -12 -58 -13 -13 0 -78 129 -69 139 4 3 28 11 53 17 26 7 48 12 50 13 2 0
18 -32 37 -71z m-816 15 c36 -74 36 -80 -6 -87 -21 -4 -45 -9 -54 -12 -12 -3
-22 10 -38 47 -32 79 -32 79 61 87 11 1 25 -12 37 -35z m683 -40 c18 -38 34
-71 35 -74 2 -3 -22 -12 -54 -19 -32 -7 -63 -15 -70 -17 -12 -5 -89 135 -79
144 4 5 101 28 129 32 4 1 22 -29 39 -66z m-803 0 c12 -31 18 -60 14 -64 -4
-4 -31 -11 -59 -14 l-50 -7 -22 57 c-13 32 -21 59 -20 60 3 3 87 22 104 24 6
1 21 -25 33 -56z m-144 -10 c33 -78 32 -80 -25 -92 -85 -18 -86 -18 -108 49
l-21 60 22 5 c101 21 115 19 132 -22z m789 -30 c20 -37 36 -70 36 -73 0 -6
-121 -33 -124 -28 -19 26 -76 142 -72 146 7 6 71 19 103 21 17 1 29 -13 57
-66z m-938 -21 c26 -68 29 -63 -44 -77 -30 -6 -33 -4 -51 37 -37 86 -37 86 11
96 24 5 47 9 52 8 5 -1 20 -30 32 -64z m793 -14 l40 -73 -47 -12 c-86 -21 -87
-20 -131 59 -22 40 -39 74 -37 75 5 5 87 21 113 22 17 1 30 -15 62 -71z m-157
-32 c21 -38 38 -70 38 -72 0 -4 -99 -24 -118 -24 -12 0 -27 24 -48 74 l-32 75
37 9 c70 20 82 13 123 -62z m-147 -23 c20 -42 34 -77 33 -79 -9 -8 -123 -23
-129 -17 -14 17 -49 137 -41 145 5 5 28 12 53 17 24 5 45 9 47 10 1 1 18 -33
37 -76z m785 63 c0 -2 -9 -33 -20 -68 l-20 -64 -67 -11 c-38 -6 -75 -14 -84
-18 -13 -5 -24 7 -47 47 l-31 53 42 11 c102 26 91 28 117 -26 27 -57 38 -62
15 -7 -23 55 -19 63 28 74 49 12 67 15 67 9z m-926 -88 c15 -39 23 -75 19 -79
-4 -4 -30 -9 -58 -11 l-49 -3 -27 70 -28 70 47 12 c26 6 52 12 58 12 7 1 24
-31 38 -71z m-131 -25 c15 -37 24 -70 19 -74 -4 -4 -37 -10 -73 -14 l-66 -7
-25 69 c-14 37 -24 70 -22 72 5 6 74 19 110 20 29 1 32 -3 57 -66z m800 2 c15
-25 27 -50 27 -55 0 -7 -93 -40 -113 -40 -12 0 -69 102 -61 110 8 7 77 25 109
29 6 1 22 -19 38 -44z m-140 -44 l35 -59 -57 -16 c-32 -9 -62 -16 -68 -16 -6
0 -28 26 -48 58 l-36 57 68 17 c37 9 69 17 69 17 1 1 17 -26 37 -58z m-151
-40 l36 -59 -70 -16 c-39 -9 -74 -16 -78 -16 -9 0 -64 120 -58 126 7 6 81 22
108 23 20 1 32 -11 62 -58z m488 40 c0 -5 -17 -31 -39 -58 -35 -45 -46 -51
-116 -72 -42 -12 -78 -21 -80 -19 -15 17 -35 72 -28 78 9 8 105 42 108 37 33
-49 39 -51 20 -6 -5 13 7 19 62 32 37 8 69 15 71 16 1 1 2 -3 2 -8z m-620
-132 c0 -4 -24 -10 -52 -13 -29 -4 -63 -10 -75 -12 -18 -5 -24 2 -43 53 -11
32 -22 62 -23 68 -1 5 27 14 63 20 l65 10 32 -60 c18 -33 32 -63 33 -66z
m-190 40 c13 -35 19 -64 14 -68 -5 -5 -29 -12 -54 -15 l-46 -7 -22 65 c-12 35
-22 66 -22 69 0 3 19 8 43 10 23 2 47 4 53 5 6 1 22 -25 34 -59z m539 -15 c12
-19 21 -39 21 -43 0 -4 -30 -14 -66 -23 l-66 -16 -19 32 c-10 17 -19 34 -19
38 0 3 28 15 63 26 34 11 63 20 64 21 0 1 10 -15 22 -35z m-149 -40 c12 -19
20 -38 17 -41 -8 -7 -117 -33 -143 -33 -15 0 -26 10 -34 31 -15 36 -7 45 50
55 27 4 73 17 87 23 1 1 11 -15 23 -35z m260 -24 c-32 -21 -46 -26 -52 -17
-13 20 -9 25 30 35 63 17 69 13 22 -18z"/>
<path d="M10881 8114 c0 -11 3 -14 6 -6 3 7 2 16 -1 19 -3 4 -6 -2 -5 -13z"/>
<path d="M1231 6794 c0 -11 3 -14 6 -6 3 7 2 16 -1 19 -3 4 -6 -2 -5 -13z"/>
<path d="M13495 6255 c-114 -29 -189 -63 -291 -131 -198 -131 -347 -358 -399
-606 -19 -88 -19 -275 -1 -370 28 -142 99 -306 179 -413 25 -33 85 -99 134
-146 99 -95 191 -149 333 -194 178 -57 429 -42 618 37 65 28 72 34 72 59 l0
27 -62 -30 c-165 -80 -394 -103 -573 -59 -167 41 -346 151 -424 260 l-21 28
63 -33 c56 -30 110 -51 207 -82 110 -36 312 -59 397 -46 82 12 42 24 -80 23
-101 0 -141 4 -227 26 -140 35 -244 76 -366 146 -82 46 -187 285 -211 479 l-6
55 81 -86 c133 -141 287 -234 469 -285 102 -29 332 -43 421 -26 46 8 52 7 48
-7 -3 -9 -10 -53 -17 -99 -6 -45 -15 -85 -20 -88 -5 -3 -9 -14 -9 -24 0 -10
-5 -31 -12 -47 -6 -15 -11 -31 -10 -35 1 -4 -12 -40 -29 -80 -43 -103 -44
-106 -24 -79 26 34 73 134 106 223 76 205 79 300 19 469 -41 116 -76 185 -106
210 -16 13 -17 11 -10 -24 4 -20 25 -81 46 -135 54 -135 72 -203 56 -220 -19
-20 -141 -34 -229 -27 -166 12 -327 62 -458 141 -90 55 -228 178 -285 255 -36
49 -36 52 -30 114 9 84 49 222 86 293 28 55 29 56 30 25 1 -82 80 -215 186
-312 76 -69 139 -105 205 -116 24 -4 52 -12 62 -17 25 -13 182 -10 245 5 l53
12 35 78 c53 121 105 189 193 252 l51 37 35 -38 c20 -22 53 -65 75 -98 l40
-58 0 45 c0 41 -6 53 -51 107 -28 34 -49 62 -47 63 1 1 18 10 36 20 19 9 40
17 48 17 8 0 14 9 14 20 0 25 -11 25 -84 -1 -187 -65 -352 -251 -359 -401 l-1
-37 -56 -7 c-118 -15 -320 31 -320 73 1 38 47 152 95 232 129 215 395 415 615
462 30 6 62 19 70 29 9 9 21 15 28 12 8 -2 12 7 12 26 0 28 -4 31 -67 51 -99
31 -197 50 -293 56 -47 3 -110 7 -140 9 -36 3 -86 -4 -145 -19z m402 -50 c44
-8 104 -23 133 -33 l53 -18 -82 -22 c-167 -45 -320 -133 -455 -262 -128 -123
-218 -263 -252 -390 -10 -36 -19 -66 -20 -68 -1 -2 -15 3 -31 11 -40 21 -123
103 -162 160 -32 48 -33 50 -20 95 17 64 78 195 122 263 38 59 177 196 238
235 68 43 132 54 270 49 70 -3 162 -12 206 -20z m-558 -68 c-50 -34 -111 -94
-154 -151 -60 -80 -129 -220 -140 -285 l-7 -43 -18 40 c-10 22 -26 56 -35 76
-17 35 -17 35 16 83 49 73 197 213 269 255 35 21 66 35 69 33 2 -3 2 -6 0 -8z"/>
<path d="M7600 4305 c-47 -7 -116 -21 -155 -33 -38 -11 -87 -23 -107 -26 -51
-6 -216 -101 -325 -185 -250 -194 -420 -455 -478 -737 -18 -89 -21 -308 -5
-394 25 -132 83 -276 153 -380 45 -65 172 -194 248 -251 81 -60 223 -128 344
-165 86 -27 99 -28 305 -28 215 -1 262 4 385 41 204 62 532 314 654 503 179
276 176 720 -6 1060 -62 117 -86 146 -145 176 -27 14 -52 24 -53 22 -2 -2 26
-48 62 -103 67 -102 118 -202 147 -289 l17 -49 -48 -133 -48 -134 -101 0 c-99
0 -324 -15 -394 -25 l-35 -6 -50 98 c-28 54 -73 139 -99 189 l-49 91 23 59
c44 110 156 339 174 353 14 12 49 13 192 8 l175 -7 -7 22 c-12 39 -63 107 -92
123 -15 8 -43 28 -62 46 -39 35 -135 92 -159 95 -9 0 -34 8 -56 16 -133 50
-262 64 -405 43z m181 -97 c24 -29 77 -90 117 -135 41 -45 72 -86 70 -90 -1
-4 -24 -46 -49 -93 -39 -71 -102 -209 -139 -307 -5 -12 -21 -23 -37 -27 -15
-3 -103 -21 -195 -41 -92 -19 -172 -35 -177 -35 -5 0 -62 66 -126 148 -119
150 -147 184 -172 214 -13 14 -6 31 63 149 l78 132 76 34 c41 19 89 41 105 49
43 20 209 51 282 53 l61 1 43 -52z m-686 -470 c39 -51 107 -136 153 -190 l83
-98 -15 -137 c-8 -76 -18 -177 -21 -225 l-7 -86 -132 -60 c-72 -33 -166 -75
-210 -93 l-79 -32 -65 35 c-35 20 -98 60 -138 89 l-74 53 0 114 c0 185 45 355
139 524 78 140 95 157 177 178 115 30 110 32 189 -72z m1491 -733 c24 -82 43
-159 44 -170 0 -31 -66 -152 -122 -222 -49 -63 -202 -195 -305 -265 l-52 -36
-68 19 c-37 11 -84 25 -103 31 -19 6 -60 16 -90 23 l-55 11 -32 109 c-18 60
-42 156 -54 212 l-22 103 26 32 c13 18 76 86 138 151 l114 118 95 10 c196 20
297 26 369 25 l74 -1 43 -150z m-1087 -116 c181 -69 187 -72 189 -100 5 -69
32 -175 102 -401 5 -16 5 -28 0 -28 -8 0 -145 -151 -165 -182 -9 -14 -24 -15
-115 -7 -208 17 -406 88 -551 198 l-66 50 -6 92 c-4 51 -7 131 -7 178 l0 86
103 38 c56 22 149 63 207 92 58 29 109 54 114 54 5 1 93 -31 195 -70z"/>
<path d="M0 3465 c0 -32 3 -35 28 -35 76 0 246 -53 317 -100 17 -11 41 -26 55
-34 23 -13 40 -31 120 -130 66 -82 130 -194 130 -228 0 -11 5 -28 11 -40 19
-35 24 -89 22 -218 -1 -76 -6 -126 -13 -128 -5 -2 -10 -14 -10 -26 0 -12 -8
-33 -17 -46 -10 -14 -16 -27 -15 -30 2 -3 -7 -26 -18 -51 l-22 -46 -166 -32
c-92 -18 -224 -46 -295 -62 -107 -26 -127 -34 -127 -50 0 -10 5 -16 13 -14 50
18 493 115 525 115 25 0 -22 -60 -69 -90 -71 -43 -120 -91 -139 -133 -20 -45
-22 -43 -55 55 -13 41 -24 62 -24 48 -1 -44 65 -280 150 -535 56 -171 60 -216
24 -269 -24 -35 -24 -36 -4 -36 11 0 34 13 50 29 44 45 40 94 -25 292 -30 90
-63 182 -74 204 -33 67 -35 96 -12 158 20 54 44 83 144 175 20 19 36 40 36 47
0 8 13 29 29 47 44 51 108 176 131 259 39 140 23 336 -39 471 -80 174 -247
348 -396 411 -53 23 -192 57 -232 57 -31 0 -33 -2 -33 -35z"/>
<path d="M1137 3226 c63 -29 84 -60 86 -123 4 -117 -135 -178 -207 -92 -44 52
-34 112 27 176 37 39 31 49 -17 33 -104 -34 -115 -202 -18 -267 47 -31 108
-38 158 -18 34 13 47 26 69 71 23 45 27 62 21 101 -6 47 -42 105 -74 122 -9 4
-35 11 -57 15 l-40 6 52 -24z"/>
<path d="M1340 2710 c-113 -31 -153 -47 -225 -88 -83 -49 -209 -165 -266 -248
-80 -116 -131 -277 -133 -414 -1 -85 18 -180 36 -180 5 0 7 -13 3 -29 -9 -41
17 -87 98 -169 104 -108 101 -124 -79 -385 -156 -227 -189 -319 -145 -405 12
-23 33 -49 47 -58 23 -16 26 -16 42 -1 15 16 15 18 -6 33 -30 21 -52 66 -52
106 1 50 27 100 177 327 166 253 216 338 209 357 -9 23 -24 16 -55 -26 l-29
-41 -7 29 c-3 16 -36 61 -73 100 -37 39 -72 85 -79 102 -6 16 -10 30 -8 30 11
0 482 -283 625 -376 87 -56 101 -68 85 -75 -29 -11 -85 -11 -125 2 -49 15
-148 12 -183 -6 -17 -8 -31 -14 -33 -12 -3 3 13 38 53 121 14 26 20 45 14 42
-11 -7 -106 -166 -138 -231 -11 -22 -40 -80 -65 -130 -25 -49 -69 -138 -98
-198 -59 -120 -93 -157 -146 -157 -40 0 -45 -16 -8 -30 81 -31 116 2 217 209
45 91 88 184 95 206 20 60 45 105 59 105 6 0 28 10 49 22 31 18 54 22 148 23
61 1 124 7 139 14 16 6 42 11 59 11 49 0 208 60 278 105 36 24 88 67 117 98
53 55 135 175 146 212 3 11 13 40 22 65 64 173 57 405 -15 566 -81 179 -204
291 -386 351 -64 21 -103 27 -204 29 -69 2 -141 -1 -160 -6z m341 -89 c116
-37 256 -144 299 -228 13 -26 33 -60 45 -74 11 -14 26 -45 33 -70 8 -24 18
-60 24 -79 34 -108 -6 -438 -58 -481 -8 -6 -14 -19 -14 -28 0 -17 -61 -115
-89 -142 -37 -35 -151 -129 -151 -124 0 4 -12 -3 -26 -14 -15 -12 -34 -21 -43
-21 -10 0 -21 -4 -27 -10 -5 -5 -30 -16 -56 -23 l-46 -14 -128 84 c-147 97
-499 308 -621 374 -82 44 -82 44 -78 79 2 19 7 55 9 80 5 55 57 212 98 298 42
89 135 208 210 269 72 58 190 118 270 138 80 20 267 12 349 -14z"/>
<path d="M5266 2535 c-132 -37 -279 -147 -331 -251 -11 -21 -31 -55 -44 -74
-13 -19 -115 -219 -227 -445 -111 -225 -280 -556 -375 -735 -329 -624 -366
-714 -357 -869 3 -42 13 -95 23 -119 14 -35 22 -42 45 -42 l29 0 -26 47 c-38
68 -43 174 -13 279 26 89 119 284 276 579 233 435 437 850 580 1173 30 68 72
150 93 181 107 157 295 261 470 261 130 0 239 -47 321 -137 123 -134 108 -287
-69 -686 -34 -76 -61 -141 -61 -146 0 -4 -13 -26 -28 -47 -16 -21 -66 -102
-112 -179 -46 -77 -116 -194 -155 -260 -40 -66 -105 -181 -145 -255 -40 -74
-88 -157 -106 -185 -18 -27 -45 -77 -61 -110 -17 -33 -45 -85 -63 -115 -18
-30 -42 -71 -52 -90 -29 -50 -122 -164 -197 -240 -47 -47 -60 -66 -48 -68 23
-5 40 9 137 113 106 112 148 176 289 438 61 114 135 247 163 295 28 48 76 132
108 187 50 88 172 299 277 480 83 143 196 435 228 593 20 94 13 153 -25 229
l-28 55 35 -34 c59 -56 78 -102 77 -188 -2 -183 -179 -560 -701 -1485 -133
-236 -329 -523 -441 -647 l-34 -38 35 0 c32 0 41 7 84 63 l48 62 3 -40 c4 -72
10 -85 38 -85 22 0 23 2 14 21 -7 11 -14 51 -17 88 -6 78 3 91 70 98 31 3 54
-2 87 -19 58 -30 72 -58 66 -130 -4 -51 -2 -58 14 -58 15 0 20 11 26 47 6 39
3 55 -17 92 -31 58 -99 106 -151 106 -21 0 -38 2 -38 6 0 3 15 26 33 50 72 94
162 245 349 584 58 105 144 261 192 347 48 86 105 196 128 245 28 58 43 82 46
69 4 -17 10 -18 60 -11 60 8 116 9 193 3 37 -2 53 2 87 25 46 32 62 68 62 137
0 58 -28 103 -88 143 -69 47 -131 37 -187 -31 -36 -42 -46 -132 -20 -181 9
-18 14 -35 12 -38 -3 -2 -30 -7 -61 -10 l-56 -6 16 39 c9 21 19 44 24 49 15
21 120 273 144 348 14 43 29 107 32 142 6 57 4 70 -24 129 -18 38 -52 87 -80
115 -62 62 -196 129 -284 142 -89 12 -234 10 -292 -6z m736 -705 c102 -29 130
-179 43 -239 -45 -31 -108 -21 -151 24 -25 27 -31 42 -33 85 -3 79 5 105 42
123 39 19 51 20 99 7z"/>
<path d="M5948 1740 c-25 -15 -24 -76 1 -90 26 -13 42 -12 63 3 20 16 31 57
20 74 -11 18 -64 25 -84 13z m52 -34 c0 -8 -5 -18 -11 -22 -14 -8 -33 11 -25
25 10 16 36 13 36 -3z"/>
<path d="M11075 2353 c-74 -5 -242 -32 -305 -50 -90 -25 -205 -91 -286 -163
-41 -37 -83 -78 -92 -91 -37 -52 -113 -186 -118 -209 -4 -14 -17 -62 -30 -108
-59 -206 -32 -521 64 -749 75 -177 254 -373 445 -485 34 -20 73 -47 87 -60 32
-31 103 -72 155 -88 22 -7 45 -16 50 -20 16 -12 107 -41 140 -45 17 -2 68 -10
115 -18 142 -26 153 -28 215 -36 212 -29 594 25 731 103 l29 17 -30 -6 c-16
-4 -77 -18 -135 -31 -198 -45 -459 -68 -559 -48 -35 7 -35 3 -11 94 l9 35 113
-3 c146 -5 361 20 469 54 238 74 378 210 425 411 26 112 15 262 -29 395 -68
201 -174 379 -321 535 l-86 90 62 28 62 28 66 -69 c91 -96 239 -309 240 -346
1 -14 26 -49 114 -159 76 -95 243 -258 324 -316 34 -24 62 -48 62 -52 0 -4 32
-29 71 -56 39 -27 76 -54 83 -60 21 -20 164 -105 213 -127 26 -11 59 -29 73
-39 14 -9 56 -30 93 -44 37 -15 67 -30 67 -35 0 -4 -5 -21 -11 -38 l-10 -31
-42 14 c-56 18 -110 39 -122 47 -6 3 -82 43 -170 88 -88 45 -167 88 -175 96
-9 7 -36 22 -60 33 -25 12 -76 43 -115 71 -38 27 -98 69 -132 92 -34 23 -64
51 -67 62 -6 19 -7 20 -19 5 -9 -12 -11 -37 -6 -85 4 -46 2 -77 -7 -94 -6 -14
-17 -44 -23 -67 -13 -47 -58 -145 -97 -210 -14 -24 -23 -46 -20 -51 6 -10 47
-8 201 12 210 27 370 20 585 -28 91 -20 228 -60 236 -69 1 -1 -1 -18 -5 -38
l-6 -36 -95 22 c-52 13 -135 26 -185 29 -49 4 -110 11 -135 16 -104 22 -380 7
-545 -29 -55 -12 -109 -24 -120 -25 -75 -13 -203 -65 -225 -91 -18 -21 4 -20
76 6 64 23 169 48 339 81 202 39 549 29 775 -22 52 -11 107 -24 123 -27 15 -3
27 -9 27 -13 0 -4 46 -26 103 -49 56 -24 111 -47 122 -52 67 -28 98 -38 106
-33 5 3 9 0 9 -5 0 -6 3 -10 8 -9 13 3 55 -13 115 -43 l57 -30 0 183 0 184
-92 36 c-51 19 -102 39 -113 43 -11 4 -36 7 -57 6 -33 -2 -127 36 -208 84 -22
13 -242 119 -303 146 -12 5 -42 25 -67 44 -25 19 -63 47 -85 62 -22 14 -45 31
-51 37 -6 6 -22 18 -34 26 -90 60 -350 302 -429 400 -19 23 -52 60 -73 82 -20
21 -60 85 -87 141 -61 124 -127 214 -244 329 -172 170 -323 264 -546 340 -165
55 -288 77 -471 80 -85 2 -177 2 -205 1z m367 -44 c60 -8 88 -16 88 -25 0 -14
-21 -117 -25 -122 -1 -1 -58 5 -126 14 -156 20 -433 15 -524 -10 -176 -48
-307 -157 -385 -320 -81 -172 -99 -444 -39 -624 14 -40 18 -47 15 -22 -21 150
-23 143 29 154 29 6 31 4 67 -68 l37 -75 -62 -20 c-53 -18 -56 -20 -22 -16 22
3 52 7 66 11 24 5 29 0 63 -59 20 -36 36 -70 36 -75 0 -6 -19 -13 -42 -17 -62
-10 -85 -28 -28 -21 25 3 54 8 65 11 16 5 27 -6 58 -61 20 -36 37 -70 37 -74
0 -4 -16 -11 -35 -14 -19 -4 -37 -12 -41 -18 -6 -10 46 -5 79 8 7 2 31 -27 53
-65 l42 -69 -25 -11 c-31 -14 -57 3 -136 89 -47 51 -169 223 -181 255 -2 5 -6
8 -9 5 -10 -9 32 -114 69 -170 60 -90 191 -211 332 -306 2 -1 -8 -25 -23 -54
l-26 -51 -47 27 c-126 72 -297 228 -371 337 -106 155 -181 422 -181 640 0 122
36 259 107 406 47 98 65 124 131 190 131 130 295 196 552 224 81 9 320 6 402
-4z m-307 -172 c20 -29 19 -37 -8 -37 -12 0 -60 -11 -107 -23 l-85 -24 -18 21
-18 21 11 -23 c8 -17 8 -23 -2 -26 -7 -3 -44 -14 -82 -27 -68 -21 -70 -21 -84
-3 -14 18 -14 18 -8 -2 6 -19 -2 -24 -76 -51 -51 -18 -85 -26 -87 -19 -7 18
102 107 175 142 86 40 212 69 321 72 44 1 55 -2 68 -21z m172 7 c49 -6 52 -9
78 -55 30 -55 35 -50 -70 -69 -38 -7 -75 -15 -82 -17 -11 -4 -53 64 -53 86 0
6 17 13 38 17 43 8 78 23 52 23 -8 0 -35 -4 -59 -10 -43 -10 -60 -3 -61 24 0
9 85 9 157 1z m215 -42 c21 -9 38 -22 38 -28 0 -6 -24 -14 -52 -17 -29 -3 -60
-8 -68 -11 -10 -4 -24 9 -43 40 l-28 46 58 -6 c32 -4 75 -14 95 -24z m-341
-58 c12 -25 19 -47 17 -48 -1 -2 -44 -14 -94 -28 l-91 -24 -32 45 c-17 25 -28
47 -24 48 29 9 190 52 196 52 4 1 17 -20 28 -45z m473 4 c22 -7 56 -23 75 -35
18 -13 37 -21 41 -18 4 3 13 -2 20 -10 7 -8 18 -15 25 -15 11 0 30 -29 23 -36
-8 -7 -130 -34 -155 -34 -27 0 -33 7 -64 72 -19 40 -35 76 -37 80 -5 12 25 10
72 -4z m-53 -71 c16 -38 29 -73 29 -77 0 -10 -105 -33 -122 -28 -6 2 -26 38
-44 79 l-33 74 47 12 c82 20 90 16 123 -60z m-635 8 c14 -25 25 -47 23 -48 -8
-5 -146 -47 -155 -47 -10 0 -60 76 -57 88 2 6 125 49 150 51 7 1 24 -19 39
-44z m482 -42 c18 -42 31 -78 29 -80 -8 -8 -152 -41 -159 -37 -9 6 -84 147
-81 154 2 5 137 37 164 39 10 1 26 -25 47 -76z m-662 -18 c14 -25 25 -47 23
-48 -2 -2 -35 -15 -74 -30 -53 -20 -71 -24 -76 -14 -4 6 -15 21 -24 32 -15 18
-15 17 0 -13 9 -19 15 -35 13 -37 -9 -10 -158 -48 -164 -42 -16 16 67 160 88
152 7 -3 45 6 83 19 39 14 78 25 87 25 10 1 28 -18 44 -44z m468 -24 c20 -38
36 -73 36 -78 0 -9 -157 -50 -163 -42 -25 32 -97 142 -95 144 7 6 145 43 164
44 17 1 30 -15 58 -68z m633 37 c-18 -12 -25 -10 -37 11 -9 18 -8 18 20 8 20
-8 25 -14 17 -19z m99 -36 c26 -19 46 -46 60 -80 l22 -51 -62 -14 -61 -13 -41
85 c-37 75 -40 87 -25 93 34 14 69 7 107 -20z m-945 -29 c19 -26 42 -60 51
-75 16 -25 16 -27 0 -32 -100 -26 -153 -38 -156 -35 -21 27 -87 132 -83 135 4
4 136 52 148 53 3 1 21 -20 40 -46z m819 11 c6 -14 21 -50 35 -80 14 -30 25
-56 25 -58 0 -6 -89 -34 -133 -42 l-37 -6 -41 87 c-22 48 -39 88 -37 90 8 6
126 33 151 34 21 1 30 -5 37 -25z m-169 -106 l37 -86 -64 -16 c-35 -9 -67 -16
-73 -16 -8 0 -85 179 -79 185 7 6 105 23 123 21 14 -1 28 -23 56 -88z m464 0
c169 -171 302 -401 350 -608 24 -104 21 -117 -22 -129 -62 -18 -66 -15 -95 54
-29 72 -34 63 51 85 23 6 41 14 38 16 -5 5 -68 -9 -102 -22 -13 -5 -44 42 -59
93 -6 20 -1 23 54 39 77 21 72 30 -6 10 -32 -8 -62 -12 -66 -8 -8 9 -50 114
-46 116 2 1 26 10 53 19 46 16 40 16 -36 0 -28 -5 -30 -2 -63 68 l-33 74 31
13 31 12 -34 -3 c-33 -4 -34 -3 -71 77 -33 71 -36 82 -21 88 13 5 11 7 -6 7
-15 1 -27 12 -39 39 -10 20 -19 40 -21 45 -2 4 1 7 8 7 6 0 53 -42 104 -92z
m-1291 27 c54 -77 52 -85 -19 -107 -33 -10 -67 -18 -75 -18 -14 0 -96 117 -88
126 4 3 128 51 139 53 3 0 23 -24 43 -54z m662 -59 c35 -91 35 -105 -6 -106
-8 0 -33 -7 -55 -14 l-40 -14 -47 91 c-27 49 -46 93 -42 96 8 8 126 40 142 38
8 -1 29 -42 48 -91z m-828 -4 c18 -31 33 -61 33 -66 0 -9 -151 -60 -157 -53
-1 1 -14 26 -28 55 -35 70 -44 62 -11 -9 l25 -54 -63 -21 -62 -21 -3 21 c-1
12 6 50 16 86 14 51 22 65 37 66 11 1 22 3 25 3 3 1 37 13 75 26 39 12 72 23
75 24 3 0 20 -25 38 -57z m696 -133 c-2 -4 -18 -9 -36 -12 -18 -4 -49 -10 -69
-15 l-36 -9 -37 61 c-20 33 -45 75 -56 93 l-21 31 83 20 83 19 46 -91 c26 -50
45 -94 43 -97z m721 62 c14 -35 23 -67 18 -71 -7 -6 -117 -31 -118 -27 0 1
-15 35 -33 76 -17 41 -31 76 -29 77 2 2 28 10 58 18 65 17 67 15 104 -73z
m-941 -6 c27 -46 48 -87 48 -92 -1 -7 -122 -42 -149 -43 -6 0 -30 30 -54 68
-23 37 -48 77 -56 88 -13 21 -11 22 59 42 40 11 80 21 88 21 8 0 36 -37 64
-84z m789 -23 c16 -40 28 -75 26 -77 -6 -5 -161 -37 -163 -33 -8 10 -66 141
-64 143 7 7 145 43 157 41 8 0 28 -34 44 -74z m-977 -33 c29 -46 50 -87 46
-90 -4 -3 -38 -14 -77 -23 -66 -17 -70 -17 -83 1 -30 40 -94 154 -90 159 8 8
132 43 142 40 5 -1 33 -40 62 -87z m782 -4 c18 -36 32 -69 32 -74 0 -8 -141
-45 -145 -39 -1 2 -15 35 -32 73 l-31 70 62 17 c33 9 66 17 71 17 6 1 25 -28
43 -64z m-960 -42 l50 -88 -54 -17 c-29 -9 -69 -20 -87 -23 -35 -7 -35 -7 -81
76 -26 45 -43 86 -39 90 8 7 129 46 149 48 7 1 34 -38 62 -86z m796 -5 l32
-73 -40 -12 c-84 -25 -86 -25 -127 52 l-38 70 57 16 c31 9 63 17 70 18 7 0 27
-32 46 -71z m-984 -60 l40 -77 -43 -11 c-23 -6 -54 -15 -69 -20 -26 -8 -29 -6
-73 76 -26 47 -45 87 -43 89 1 2 32 12 68 22 74 22 65 28 120 -79z m824 28
c20 -35 36 -68 36 -73 0 -4 -29 -15 -65 -24 l-64 -16 -42 69 c-22 38 -39 71
-37 72 3 3 114 33 130 35 3 1 22 -28 42 -63z m728 -108 c-74 -26 -76 -25 -112
57 -18 42 -31 77 -29 79 2 2 29 10 59 18 l55 14 37 -76 37 -75 -47 -17z m-892
70 c22 -34 40 -67 40 -73 0 -7 -26 -17 -57 -24 -32 -7 -67 -15 -79 -18 -17 -3
-29 8 -63 63 -23 36 -40 68 -39 70 2 1 37 12 78 22 41 11 76 20 77 21 1 0 21
-27 43 -61z m756 -14 c20 -42 32 -80 27 -84 -6 -7 -131 -40 -148 -40 -6 0 -75
153 -71 158 3 2 38 13 78 22 40 10 74 18 76 19 2 1 19 -33 38 -75z m-1546 -88
c0 -9 -6 -16 -12 -16 -7 0 -23 -3 -35 -6 -23 -6 -23 -5 -23 81 l0 88 35 -66
c19 -36 35 -73 35 -81z m596 66 c61 -91 61 -88 -1 -106 -111 -33 -105 -35
-148 39 -21 37 -37 69 -34 71 5 6 127 42 142 43 6 0 24 -21 41 -47z m755 1
c11 -27 27 -61 35 -77 8 -16 13 -30 12 -32 -5 -4 -125 -34 -138 -34 -12 0 -84
149 -76 158 7 6 105 30 129 31 12 1 24 -14 38 -46z m-159 -70 l36 -78 -22 -12
c-12 -6 -38 -14 -58 -18 l-37 -7 -41 81 c-29 58 -37 83 -28 86 30 10 84 23 99
24 10 1 28 -26 51 -76z m-779 19 c15 -26 34 -56 42 -68 15 -21 14 -22 -77 -46
-105 -28 -92 -33 -144 59 -15 29 -26 55 -22 58 7 8 134 43 158 44 8 1 27 -20
43 -47z m636 -59 l41 -82 -38 -10 c-94 -25 -83 -29 -130 52 -23 41 -42 79 -42
84 0 7 118 43 126 39 1 -1 20 -38 43 -83z m731 -37 c0 -7 -19 -17 -42 -23 -24
-7 -50 -14 -59 -18 -12 -4 -22 9 -41 55 l-26 60 61 19 62 19 23 -50 c12 -28
22 -56 22 -62z m-1566 33 c20 -33 36 -66 36 -73 0 -9 -107 -46 -134 -46 -7 0
-79 141 -74 146 3 2 105 29 129 33 4 1 23 -26 43 -60z m685 -40 l41 -76 -57
-12 c-32 -7 -67 -15 -79 -17 -17 -4 -29 9 -68 72 -26 42 -45 78 -43 81 10 9
152 40 159 34 3 -3 25 -40 47 -82z m710 34 c39 -79 40 -78 -44 -98 -42 -10
-77 -16 -79 -14 -2 2 -15 27 -30 56 l-26 52 43 11 c23 6 53 15 67 20 42 14 49
11 69 -27z m-895 -70 c25 -42 44 -78 42 -80 -5 -5 -159 -43 -162 -40 -11 13
-92 153 -89 155 5 5 129 40 147 41 10 1 33 -27 62 -76z m721 5 c14 -28 23 -53
21 -55 -5 -5 -139 -43 -142 -40 -1 1 -13 27 -26 57 l-25 55 61 17 c34 9 67 17
73 17 7 1 24 -22 38 -51z m-909 -53 c24 -38 43 -73 44 -76 0 -3 -36 -13 -81
-23 -45 -10 -87 -20 -93 -22 -11 -4 -96 125 -96 146 0 9 147 49 169 47 8 -1
33 -33 57 -72z m739 8 c14 -31 23 -58 21 -60 -2 -2 -26 -10 -54 -17 l-49 -13
-27 54 c-15 31 -25 57 -23 59 4 4 86 31 100 33 4 1 19 -24 32 -56z m553 4 c12
-29 22 -55 22 -59 0 -3 -20 -11 -44 -17 -24 -6 -50 -13 -58 -16 -14 -6 -58 70
-58 100 0 12 71 42 106 44 6 1 20 -23 32 -52z m-1493 -80 c23 -39 30 -59 22
-62 -40 -14 -143 -33 -148 -27 -4 4 -23 37 -43 74 l-37 67 38 10 c21 5 54 14
73 19 40 11 42 10 95 -81z m793 61 c11 -18 23 -45 27 -59 6 -24 3 -26 -49 -39
-31 -7 -58 -11 -60 -9 -18 22 -57 101 -52 107 7 7 80 29 103 31 6 1 20 -14 31
-31z m556 -25 c15 -31 24 -58 22 -60 -5 -5 -150 -43 -151 -40 0 1 -12 26 -25
54 -13 29 -21 56 -17 59 3 3 36 14 74 24 37 10 69 19 70 19 1 1 13 -24 27 -56z
m-692 -35 c16 -29 25 -55 20 -59 -9 -8 -133 -42 -136 -37 -17 23 -66 111 -64
113 6 6 113 33 133 34 14 1 28 -14 47 -51z m513 -8 c14 -27 25 -53 25 -58 0
-8 -105 -42 -130 -42 -14 0 -63 101 -53 111 7 6 100 35 125 38 4 1 19 -21 33
-49z m-689 -32 c16 -29 30 -56 32 -60 3 -6 -70 -29 -133 -42 -28 -6 -32 -3
-63 54 -25 44 -30 61 -20 65 28 10 124 33 139 34 9 1 28 -21 45 -51z m1070
-15 c14 -32 26 -62 27 -66 3 -11 -106 -49 -114 -39 -4 4 -19 33 -33 65 -18 41
-22 59 -13 62 65 24 93 34 100 34 4 1 19 -25 33 -56z m-543 -8 c15 -31 27 -57
27 -59 0 -2 -13 -6 -29 -9 -16 -3 -40 -9 -54 -12 -23 -6 -28 -2 -51 44 -14 28
-26 55 -26 60 0 9 57 28 90 30 10 1 27 -21 43 -54z m-715 -31 c18 -31 31 -59
28 -61 -2 -2 -43 -15 -90 -28 l-86 -24 -35 60 c-19 33 -35 64 -35 68 0 8 118
38 160 40 21 1 32 -9 58 -55z m582 -3 l29 -59 -46 -16 c-26 -9 -52 -16 -59
-16 -12 0 -80 107 -73 115 2 2 29 10 59 18 30 8 56 16 57 16 2 1 16 -26 33
-58z m503 -93 c-38 -10 -73 -18 -78 -18 -15 0 -68 111 -58 121 4 4 37 16 73
27 l65 19 33 -66 32 -66 -67 -17z m-1284 27 c13 -25 22 -47 20 -49 -2 -2 -37
-13 -77 -24 l-72 -20 -41 70 c-22 38 -39 71 -37 72 1 1 37 9 78 17 86 18 84
19 129 -66z m639 26 l33 -60 -68 -20 -68 -21 -15 22 c-8 12 -25 38 -38 59
l-23 38 43 11 c24 6 54 15 68 20 14 5 27 9 30 9 3 1 20 -26 38 -58z m505 -16
c15 -31 27 -57 27 -59 0 -3 -59 -19 -112 -31 -25 -5 -30 -1 -53 45 -14 27 -25
54 -25 59 0 10 81 38 115 40 16 1 28 -13 48 -54z m471 -32 c-6 -73 -20 -131
-28 -122 -13 14 -67 161 -61 167 8 9 66 30 83 31 10 1 11 -16 6 -76z m-1141 0
c20 -32 35 -58 34 -59 -1 -1 -39 -13 -84 -27 l-83 -25 -34 61 c-19 34 -33 63
-32 65 6 5 130 40 148 41 10 1 30 -21 51 -56z m507 -13 l30 -59 -38 -10 c-62
-18 -70 -14 -97 39 -14 27 -25 52 -25 54 0 4 35 17 97 35 2 1 16 -26 33 -59z
m546 -22 c16 -40 30 -76 32 -79 2 -4 -11 -10 -27 -13 -97 -19 -86 -24 -120 50
-17 36 -31 69 -31 73 0 8 77 38 101 40 11 1 25 -22 45 -71z m402 10 c68 -60
278 -189 334 -207 20 -7 38 -16 40 -20 4 -12 262 -135 325 -155 29 -10 55 -22
58 -27 8 -13 2 -12 -52 10 -49 19 -137 36 -161 32 -8 -1 -19 2 -25 7 -13 9
-71 25 -147 40 -136 26 -422 16 -530 -18 -30 -10 -57 -16 -59 -14 -3 2 7 17
21 32 51 55 117 245 118 340 0 17 4 32 8 32 5 0 36 -24 70 -52z m-1644 -30
l35 -63 -87 -26 -87 -26 -37 58 c-21 32 -38 62 -38 67 0 8 131 48 167 51 6 1
28 -27 47 -61z m569 7 c20 -40 24 -57 15 -60 -49 -16 -102 -25 -108 -18 -4 4
-19 29 -34 54 l-26 46 52 16 c29 8 58 16 63 16 6 1 23 -24 38 -54z m520 8 c9
-21 22 -55 31 -75 l16 -37 -58 -11 c-31 -6 -65 -14 -74 -16 -14 -4 -25 10 -50
60 -17 36 -29 68 -26 71 5 5 116 40 139 44 4 0 14 -16 22 -36z m-662 -49 l29
-50 -68 -20 -68 -20 -32 53 -31 53 62 19 c34 10 66 18 71 17 5 -1 22 -25 37
-52z m-627 -27 l37 -57 -23 -9 c-54 -20 -138 -44 -141 -40 -11 13 -77 132 -75
134 9 8 154 41 159 36 4 -3 23 -32 43 -64z m1129 2 c15 -33 27 -64 27 -68 0
-11 -122 -34 -130 -24 -4 4 -21 33 -38 65 l-31 56 57 15 c86 23 85 23 115 -44z
m-663 -16 c17 -26 30 -50 30 -53 0 -3 -33 -17 -72 -29 -40 -13 -77 -25 -83
-27 -10 -4 -72 102 -64 110 5 5 130 44 147 45 7 1 26 -20 42 -46z m508 -28
c35 -71 36 -69 -33 -83 l-40 -8 -32 55 c-18 31 -33 61 -33 68 0 10 54 30 90
32 10 1 28 -24 48 -64z m-134 -27 c19 -34 33 -65 31 -68 -5 -8 -115 -34 -120
-28 -1 1 -16 31 -33 64 l-31 62 52 15 c29 8 55 16 59 16 4 1 23 -27 42 -61z
m-564 0 c16 -29 30 -56 30 -59 0 -4 -33 -14 -72 -24 -40 -9 -78 -18 -85 -20
-11 -4 -80 92 -72 99 2 2 40 15 84 29 44 14 81 26 82 26 2 1 16 -23 33 -51z
m1216 28 c6 -26 -13 -70 -52 -122 -20 -27 -34 -34 -89 -43 -35 -6 -71 -14 -78
-17 -9 -3 -23 15 -40 53 -38 86 -38 85 18 99 90 22 92 21 127 -53 36 -74 50
-71 19 4 -32 75 -31 76 24 89 28 7 53 13 57 13 4 1 10 -10 14 -23z m-796 -66
c16 -33 30 -61 30 -63 0 -6 -121 -40 -124 -35 -13 17 -67 120 -65 122 6 5 102
34 116 35 7 1 26 -26 43 -59z m-616 -16 c15 -25 25 -48 22 -51 -6 -6 -160 -53
-162 -50 0 1 -13 23 -28 50 -15 26 -26 47 -24 48 2 0 37 11 78 24 41 12 77 23
80 24 3 0 18 -20 34 -45z m1150 -91 c6 -19 2 -22 -48 -33 -31 -6 -60 -8 -66
-5 -12 8 -73 125 -68 131 3 2 31 10 64 17 l59 14 26 -51 c15 -28 29 -61 33
-73z m-684 61 c18 -30 30 -57 27 -60 -6 -6 -139 -44 -154 -44 -11 0 -73 94
-73 111 0 6 126 46 152 48 10 1 28 -20 48 -55z m513 -44 l38 -69 -28 -7 c-15
-3 -41 -10 -57 -15 -16 -5 -30 -8 -31 -7 -8 9 -65 129 -65 136 0 8 59 27 95
31 6 0 27 -30 48 -69z m-1169 21 l19 -34 -29 19 c-47 29 -54 36 -48 46 11 17
38 3 58 -31z m488 -81 c2 -7 -30 -21 -75 -34 l-77 -23 -35 56 c-19 30 -35 58
-35 61 0 4 37 15 83 26 l82 20 27 -47 c15 -26 29 -53 30 -59z m542 35 c20 -36
36 -69 36 -74 0 -8 -119 -36 -125 -29 -2 2 -16 33 -33 70 l-30 66 52 15 c28 9
54 16 58 16 3 1 22 -28 42 -64z m-754 -34 c25 -37 36 -62 29 -66 -6 -4 -47 7
-92 25 -45 17 -95 36 -110 42 -23 9 -26 13 -14 20 16 9 114 36 134 37 7 1 30
-26 53 -58z m614 -10 l35 -69 -61 -12 c-70 -13 -70 -14 -114 72 l-24 47 43 11
c23 6 47 13 52 15 27 10 37 0 69 -64z m608 46 c-6 -7 -32 -28 -57 -46 l-45
-32 -9 23 c-11 29 -7 33 54 51 63 20 70 20 57 4z m-757 -78 c20 -34 34 -64 31
-66 -12 -12 -129 -30 -157 -24 -25 5 -38 18 -61 57 l-28 51 72 20 c106 30 103
30 143 -38z m645 0 c0 -14 -236 -98 -244 -87 -21 28 -36 55 -36 64 0 10 108
41 114 32 1 -1 10 -14 19 -28 18 -26 24 -11 7 20 -8 16 -3 20 48 32 55 14 58
14 74 -6 10 -12 18 -24 18 -27z m-851 -38 c13 -23 22 -44 20 -45 -6 -5 -178
32 -195 42 -11 6 4 14 58 29 40 11 78 20 83 18 6 -1 21 -21 34 -44z m564 -15
c19 -40 17 -41 -64 -51 -53 -7 -54 -6 -65 23 l-12 30 57 15 c31 8 59 15 62 16
3 1 13 -14 22 -33z m-152 -27 c16 -31 0 -40 -67 -37 -46 2 -60 7 -62 20 -2 12
8 19 40 26 66 15 76 14 89 -9z m-147 -24 c4 -12 -5 -15 -51 -15 -35 0 -53 4
-47 9 8 8 24 12 80 20 7 0 14 -6 18 -14z"/>
<path d="M12248 1613 c7 -3 16 -2 19 1 4 3 -2 6 -13 5 -11 0 -14 -3 -6 -6z"/>
<path d="M13435 2322 c-99 -34 -200 -124 -251 -224 -23 -43 -28 -70 -32 -144
-5 -106 5 -147 55 -221 69 -103 189 -158 328 -151 104 5 184 42 268 122 63 61
91 114 102 192 12 91 -26 235 -74 283 -26 26 -51 29 -29 4 9 -10 28 -43 44
-73 23 -45 28 -72 32 -146 4 -77 1 -98 -18 -141 -12 -28 -37 -65 -55 -83 -34
-33 -35 -33 -55 -15 -11 10 -35 48 -53 84 -58 119 -41 246 49 357 25 30 42 54
39 54 -35 0 -117 -110 -135 -180 -29 -108 -3 -228 66 -309 35 -40 36 -43 18
-56 -70 -54 -187 -82 -265 -66 -52 12 -136 47 -145 63 -3 5 3 19 13 31 51 57
93 170 93 248 0 66 -37 162 -81 213 -23 26 -39 52 -36 61 3 7 44 32 90 54 73
36 92 41 153 41 75 0 127 -19 180 -63 45 -38 54 -33 14 8 -68 70 -205 94 -315
57z m-53 -261 c28 -79 21 -189 -15 -264 -38 -77 -66 -110 -81 -97 -7 5 -16 6
-20 2 -4 -4 -6 0 -4 8 2 8 -2 14 -9 15 -6 0 -15 4 -20 9 -5 5 -2 6 6 1 7 -4
12 -4 9 1 -2 5 -16 34 -31 64 -60 124 -37 283 56 387 l19 22 35 -46 c19 -25
44 -71 55 -102z"/>
<path d="M13538 2273 c7 -3 16 -2 19 1 4 3 -2 6 -13 5 -11 0 -14 -3 -6 -6z"/>
<path d="M5254 2205 c-18 -15 -18 -15 9 -9 32 7 39 -15 7 -23 -26 -7 -21 -27
8 -31 25 -4 56 37 46 62 -8 20 -44 21 -70 1z"/>
<path d="M14 2145 c-4 -9 -2 -34 4 -56 9 -34 8 -40 -4 -35 -20 8 -18 -21 5
-52 25 -36 36 -77 72 -282 37 -212 63 -299 105 -349 34 -39 86 -61 143 -61 26
0 31 4 31 25 0 23 -4 25 -46 25 -40 0 -51 5 -84 38 -41 41 -54 75 -75 207 -25
150 -66 360 -80 415 -8 30 -19 74 -25 98 -11 43 -35 57 -46 27z"/>
<path d="M5504 2085 c-18 -13 -17 -14 11 -12 21 1 30 -3 33 -16 3 -15 0 -18
-16 -13 -23 8 -34 -4 -23 -23 5 -7 21 -11 37 -9 24 2 30 8 32 33 6 46 -35 69
-74 40z"/>
<path d="M5082 2004 c-31 -21 -29 -61 3 -76 22 -10 29 -9 46 9 39 39 -5 98
-49 67z m28 -24 c0 -11 -4 -20 -10 -20 -5 0 -10 9 -10 20 0 11 5 20 10 20 6 0
10 -9 10 -20z"/>
<path d="M5413 1828 c-23 -30 -27 -43 -6 -25 24 21 33 22 33 3 0 -7 -10 -16
-22 -20 -22 -5 -22 -6 -5 -23 19 -19 41 -12 61 20 22 34 -36 77 -61 45z"/>
<path d="M13397 1659 c7 -7 15 -10 18 -7 3 3 -2 9 -12 12 -14 6 -15 5 -6 -5z"/>
<path d="M4375 650 c-3 -5 3 -10 14 -10 13 0 21 -7 21 -16 0 -12 -6 -15 -25
-10 -21 5 -25 3 -25 -14 0 -29 23 -34 59 -15 34 17 38 30 17 58 -14 19 -51 23
-61 7z"/>
<path d="M4630 485 c-11 -13 -9 -15 10 -13 13 2 25 -3 27 -10 4 -9 -2 -11 -21
-6 -19 4 -26 2 -26 -9 0 -43 65 -45 76 -1 11 44 -38 73 -66 39z"/>
<path d="M4236 424 c-44 -43 7 -104 59 -70 31 20 32 50 3 70 -28 20 -43 20
-62 0z m44 -19 c10 -12 9 -16 -5 -21 -17 -7 -38 13 -29 28 8 12 20 10 34 -7z"/>
<path d="M4481 311 c-9 -6 -7 -10 8 -14 12 -3 21 -12 21 -21 0 -19 -11 -21
-28 -4 -9 9 -15 9 -24 0 -9 -9 -7 -16 7 -32 23 -25 40 -25 65 0 16 16 18 25
10 40 -14 26 -43 41 -59 31z"/>
<path d="M5003 113 c-29 -20 -29 -34 2 -63 21 -20 29 -22 49 -12 33 15 42 48
20 73 -20 23 -41 23 -71 2z m45 -31 c2 -7 -3 -12 -12 -12 -9 0 -16 7 -16 16 0
17 22 14 28 -4z"/>
</g>
</svg>
